<?xml version="1.0" encoding="UTF-8"?>
<svg id="Layer_2" data-name="Layer 2" xmlns="http://www.w3.org/2000/svg" viewBox="0 0 343.39 89.65">
  <defs>
    <style>
      .cls-1 {
        fill: #91993c;
      }

      .cls-2 {
        fill: #56565a;
      }
    </style>
  </defs>
  <g id="Layer_1-2" data-name="Layer 1">
    <g>
      <path class="cls-1" d="M59.38,45.52c-.57-.32-2.07-.44-2.28-.25-.21,.19-1.64,.64-2.07,.64s-.64-.13-.43,1.21c.22,1.34,1.43,3.37,2,3.94,.57,.57,1.57,.38,3.5,.7,1.69,.28,3.76,1.58,4.25,1.9,.35-.07,.65-.13,.82-.18,.64-.19,0-.57-.86-.95-.85-.38-1.92-1.4-3.07-2.67-.91-1.01-.78-2.49-.58-3.73-.56-.26-1.05-.46-1.27-.59m64.04,25.4c-.77-.51-2.04-.67-2.56-1.65,1.1-.87,.78-2.04-.47-2.48,.62-.37,.84-.89,1.34-1.4-.45-.1-.75-.44-1.16-.58,1.79-2.13,0-2.28-1.98-2.62-.84-.14-1.2,.05-1.91-.24-.55-.23-1.1-1.01-1.64-1.39,.17,.05,.66,.16,.63,.14,.01-.29-.07-.88,0-1.13-1.33-.41-.53-1.88-1.77-2.02,.03,0,.07,0,.1,0-.99-.65-4.2-4.47-1.47-4.6,.13-.28,.16-.63,.32-.89,.25,.18,.64,.4,.89,.63-.11,1.07,1.05,1.96,2.22,1.61,.11,.17,.62,1.1,.69,1.31-.35-.04-.83,.13-1.18,.1,.46,.59,.75,.86,1.64,.95-.36,.88-.38,1.74,.67,1.87,0-.31,.1-.79,.13-1.14,.85,.19,1.43,.3,2.35,.41-.17-.29-.21-1.08-.42-1.38,.57-.09,.62-.42,.85-.53,.27-.1,.51-.18,.78-.29-.3-.75-.58-1.19-1.59-1.41,.05-.04,.5-.22,.61-.29-.17-.46-.21-.79-.17-1.35,.33,.04,.61-.18,.89-.25,.24,.41,.28,.29,.61,.6,.24-.1,.04-.43,.01-.41,.27,0,.53,.09,.79-.02-.02-1.13,.54-2.3-.12-2.92,.32-.45,.27-.9,.41-1.36-1.13,.11-3.29-1.67-3.38-.56-.09,.04-.36-.49-.48,.24-.82-.19-1.64-.35-2.52-.43,.05-.04,.14-.36,.1-.46-.22-.23-.66-.25-.9-.58,.03-.24,.19-.4,.18-.64-.76-.06-1.12-.4-1.93-.13-.28-.77-.66-1.25-1.33-1.84,.15-.32,.06-.59,.16-.94,.51,.03,.79-.28,1.15-.34-.29-.93-.01-1.73-.26-2.54-.34-1.1-1.68-.45-1.18-1.94-1.28-.9-.41-1.86,.97-1.48-.03,.25-.18,.4-.2,.65,.94-.23,1.21,.07,1.89,.58-.09,.25-.27,.63-.42,.85,.41,.13,.58,.3,1.11,.35-.12,.15-.49,.49-.65,.63,1.14-.17,1.41-.35,2.64-.47-.02-1.01-.27-1.42-1.17-1.7,.29-.4,.09-.77,.76-1.18-.21-.07-.45-.17-.73-.22,1.23-.01,1.89-.81,1.84-1.88-.9-.8-2.2-.77-3.32-1.07,.11-.26,.08-.87,.18-1.14-.39,.09-1-.15-1.4-.07-.3-.63-.29-1.23,0-1.86,.4,.14,1.24-.01,1.64,.15,.14-.66,.33-1.53-.19-2.3,2.01-1.23,.09-2.81-.96-3.7,.22-.17,.44-.35,.66-.53-.11-.37-.67-1.32-.99-1.62-.85,.26-1.41-.3-1.83-.95-.1,.17-.2,.48-.28,.59-2.22-.76-2.59-.52-4.79-.09-1.6,.32-3.95,.26-5.8-.11,1.45-.82,1.05-2.24,.63-3.48,3.68-1.07-1.28-2.63-2.57-3.02,.28-.01,.6-.03,.86-.03,.9-2.18-2.32-1.68-2.65-3.56-.82-.27-1.51-.28-2.33-.02,.01,0,.49-.22,.41-.2-.53,.12-1.35-.12-1.91-.09,0-1.32-.52-2.42-1.92-2.67-.09-.22-.05-.42-.13-.65-2.36-.2-4.09,.17-6.09-1.31-.95-.7-4.06-2.49-3.61-3.79-.7,.16-1.55,.56-2.05,.89,2.58,.7-1.03,1.55-1.97,2.18-.74-.11-1.52,.04-2.38,.02-.2-.95-.53-1.15-1.49-1.03,.04-.11,.04-.23,0-.34-.77,.11-1.44,.32-2.12,.64-.03-.14-.05-.27-.08-.41-1.01-.44-2.47-.92-3.15-.08-.66-.04-1.33,.28-1.88,.35,.5,.29,.93,.87,1.38,1.11-.61,.05-1.28-.01-1.82,.01-.19-.33-.39-.53-.6-.85-.12,.28-.34,.4-.47,.85-1.05-.34-2.54-.16-3.41-.9-.43,.29-1.15,.22-1.59,.41-.2-.25-.53-.45-.73-.66-.18,.27-.47,.87-.56,1.18,.41,.35,.29,.71,.27,.89-.43,.31-.96,.59-1.39,.78-.65-.71-.71-1.69-1.27-2.39-1.05-1.3-1.24-1.05-2.9-1.65-1.54-.55-3.71-3.06-4.87-3.05-.08-.14,.16-.44,0-.61-1.16,.18-1.39,.94-.98,1.88-1.82-.18-2.67,1.18-1.2,2.39-1.42,.52-3.15,0-4.39,.73-1.5,.87-.45,2.49-3.3,1.96,0-.02,.11-.37,.15-.49-1.2,1.47-3.58-.23-4.1,2.19-.72-.48-1.55-.93-2.57-.48-.03-.14-.06-.28-.08-.43-1.43,.37-1.6-.75-3.08-.48,.21,1.64-1.05,2.58-.72,4.04,.58-.06,1.08,.34,1.62,.32,2.1,4.39-3.97,.08-4.35,3.31-.83,.11-1.58,.48-1.96,.98-.11,.02-.46-.17-.63-.19,.07,1.09-.61,1.61-1.7,1.46-.02,1.99-2.53,.66-2.73,2.16-.04,.26,1.64,1.43,1.75,2.13,.36-.14,1.03,0,1.39-.17-.06,1.3-.12,2.69,1.19,3.33,.15-.53,.47-.57,.58-1.15,.53,.25,1.22,.02,1.8,.18,.03-.27,.12-.59,.13-.9,1.33-.6,2.22,.42,1.94,1.86,.12,.16,.48-.02,.65,.07-.05,.41-.1,.76-.17,1.14,.15-.03,.75-.02,.9,0,.47-1.9,4.59-.47,1.92,1.43-.22,.15-2.36,.48-2.92,.53-.57,.06-.41,.41-1.09,.44-.29,.01-.38-1.05-.89-.87-1,.36-1.25,1.13-2.07,1.65-.87,.56-1.75,.51-2.7,.53-1.35,.02-5.77-2.92-5.49,.15,.94-.14,1.88,.15,2.35,.95-.81,.78-1.84,.65-2.63-.1-.28,1.25,1.21,1.81,.78,3.27,.86,.4,.54,.57,.89,1.22-1.25,.14-3.1,1.18-3.56,2.4,.57,.36,.73,1.08,1.14,1.45-.55,.6-.2,.79-.41,1.47,1.2,.3,1.33-.75,2.32-.7,.77,.04,1.42,.81,2.22,1.02,0,.29,0,.61,.06,.89,.97-.04,1.84,.33,2.12,1.19-1.95,.94-6.41,2.28-4.07,4.41-.58,.43-.89,.92-1.68,1.01,.24,1.48-1.03,1.98-.55,3.31-1.62,.27-3.06-.87-4.47-.47,.45-.61,.17-.99,.34-1.62-1.08-.62-.65-1.53-1.86-1.7-.09,.25,.02,.39-.12,.62-1.67-1.65-4.74,1.5-3.82,2.54-.08,.11-.28,.72-.25,.88-.29,.04-.6,.05-.89,.07,.37,.65,.05,.79,.89,1.22-.15,1.01,.41,1.86,.25,3.06-.68-.24-1.03,.07-1.62-.43,.06,.66-.26,1.06-.19,1.69-.44-.05-1.05,.12-1.46,.02-.03,.76,.47,1.34,1.08,1.84-.63,.69-.83,.79-1.66,.52-.21,.45-.39,.31-.44,.95,.14,.02,.28,.06,.42,.09-.24,.71-.67,1.42-1.16,2.08,1.23-.13,2.41-.13,2.6,1.2-1.28,.26-2.65,.55-1.8,2.2,.99,.57,2.71,.11,2.84,1.46,1.63-.25,1.79,1.8,3.29,.99-.98,.04-1.12-.28-1.83-.77,.02-.21,.21-1.2,.24-1.33,1.02-.43,2.14-1.51,3.34-.73-.24,.13-.63,.51-.94,.67,.1,.07,.52,.41,.67,.53-.14,.9-.57,1.63-.66,2.58,.36-.03,.8,.09,1.16,.08,0,.36-.17,.36-.25,.68,.12,.67,.27,.71,.3,1.41,1.08,.07,2.35,2,2.42,3.15,1.43-.2,4.98,2.27,4.85-1.08,.42-.03,1.09-.12,1.42-.13,.3,.38,.95,.57,1.28,.97,.67-.52,1.33-.37,1.85-.46-.08,.07-.48,.57-.61,.74,.39,.3,1.33,.61,1.79,.69-.03-.56,.26-.76,.07-1.37,.46-.11,1.18-.15,1.64-.01,.1,.18,.07,.46,.13,.66,.76-.48,.76,0,.92-1.15,.35,.18,.98,.06,1.38,.25,.02,.14,.04,.28,.07,.42,.66-1.08,1.66-.74,2.82-1.15,.68,1.74,5.19-.26,6.73-.48-.42,.32-.66,.91-.85,1.14,.96-.09,1.27,.15,1.83,.81-1.07,.31-1.84,.9-1.23,1.64-.58,.2-.93,.93-1.32,1.16,.64,.94,1.84,.92,2.13,.51-.03,.16-.02,.32,.05,.47,.75,.54,1.29,.64,1.94,.03-.13-.34-.15-.6-.25-.92,.82,.27,1.53,.43,2.36,.24,.06,.22-.05,.45,.06,.66,.76-.24,.72,.1,1.24-.66,.73-.04,.6-.11,1.18-.51-1.07-.6-2.34-1.45-3.37-1.87,.46-.13,1.1-.68,1.46-.8-.11-.03-.54-.17-.69-.23,1.05-3.11,4.76-.6,5.78-2.87,1.17-.01,2.54-.73,3.64-.54,1.33,.23,1.87,1.04,3.09,1.52,1.21,.48,2.35,.08,3.35,.48,.05,.02,.08,.04,.13,.06-.61,1.74,1.73,6.36,.83,8.28-1.67,3.57-4.43,4.35-8.2,6.68,2.91-.6,2.7,.36,5.34,.81,2.53,.44,5.01-.42,7.69,.13,5.39,1.1,9.5,.3,15.08-.71,.11-.24,.18-.43,.33-.63-1.23-.16-2.74-.59-4.19-1.17-3.31-1.02-4.68-2.58-4.95-3.61-.5-1.97-3.56-5.78-4.64-7.24-1.07-1.46-.93-5.15-1.43-7.05-.5-1.91-2.35-2.16-3-2.16s-1.35,.44-2.07,.12c-.72-.32-1.14-1.21-1.78-1.59-.64-.38-.61-.54-.71-1.33-.14-1.14-.07-.83,.36-1.91,.42-1.08,1.42-.95,1.92-1.27,.5-.32,2.42-2.73,2.64-3.05,.22-.32,.86-.51-.07-1.27-.93-.76-.71-1.14-.86-1.71-.14-.57,.71-.19,1.36-.13,.61,.06,.91,0,1.49-.17-.19-.09-.49-.23-.78-.34-.5-.19-2.28-.38-4.64-.51-2.36-.13-4.14-1.46-4.64-1.78-.36,.06-1.57-.07-2.92-.64-1.36-.57-2.71-2.29-3.21-3.37-.5-1.08-.71-3.37-.57-4.13,.14-.76,.43-.13,.43-.13,0,0,.2,.85,.43,1.65,.21,.76,1.57,3.05,1.57,3.05,0,0,.15-.7-.14-1.52-.36-1.04-.5-2.48-.36-3.24,.14-.76,.64,0,.64,0,0,0,.21,1.08,.43,2.8,.21,1.71,1.64,2.73,1.85,3.05,.21,.32,.93,.57,.5-.25-.43-.83-.53-3.26-.36-3.69,.29-.7,.57-.25,.57-.25,0,0,.14,.83,.22,1.65,.07,.83,.71,2.6,1.28,2.99,.57,.38,.93-.7,.79-1.33-.14-.64-.64-3.37-1.29-4.64-.64-1.27-.78-2.79-1.28-4.06-.5-1.27-1.07-6.1-1.28-6.99-.21-.89,.36-4.13,.5-5.02,.14-.89,.21-1.46,.57-1.4,.36,.06,.28,.7,.28,.7,0,0-.21,2.79-.21,4.51s.93,2.6,1.14,4.83c.22,2.22,1.22,4.19,1.71,5.65,.5,1.46,.57,1.27,1,1.33,.43,.07,.71-.57,.71-.57,0,0,.93-2.1,1.43-3.37,.5-1.27,.22-5.53,.14-6.73-.07-1.21,.14-2.35,.57-2.92,.43-.57,.57-.13,.5,1.53-.07,1.65,.07,1.9,.22,3.36,.14,1.46,.07,2.86-.07,4.95-.14,2.1,.57,2.67,1.78,3.11,1.21,.44,2.71,.83,3.64,1.46,.93,.64,3.57,.06,4.78-.19,1.21-.25,2.64-1.71,3.35-1.97,.71-.25,1-1.21,.21,.7-.79,1.91-4.71,3.17-5.42,3.43-.71,.25-.29,1.08,0,1.78,.28,.7,1.85,.7,2.14,.64,.29-.06,1.07-.76,.5,.26-.57,1.02-1.85,.95-2.5,.95s-2.07-1.21-2.64-2.04c-.22-.31-.71-.64-1.26-.94,.17,1.4,1.08,2.97,1.83,3.35,.85,.44,1.71,.57,3.07,1.33,1.35,.76,3.35-.7,4.07-1.78,.71-1.08,1.14-5.53,1.36-6.48,.21-.95,.43-3.43,.5-4.19,.07-.76,.57-.06,.57-.06,0,0,.34,.4,.43,1.59,.07,.95-.14,2.22-.28,3.3-.12,.88,.43,1.71,.36,2.35-.07,.64-.43,3.05-.43,3.05,0,0,2.07-.7,4.06-1.33,2-.64,3.43-1.52,5.06-3.49,1.64-1.97,1.64-5.02,1.29-5.78-.36-.76-.22-1.14-.22-1.71s.36-.51,.36-.51c0,0,1.14,2.1,1.43,3.62,.28,1.52-.5,3.56-.5,3.56,0,0,1.71-1.33,3.21-3.3,1.5-1.97,2.07-5.46,1.86-7.11-.21-1.65-1.57-6.42-2.14-7.94-.57-1.53-.43-3.43-.22-4.76,.22-1.33,.5-.38,.71-.07,.22,.32,1.07,2.22,1,3.69-.07,1.46,.86,3.05,1.22,3.62,.35,.57,1.57,4.89,1.92,5.97,.36,1.08,.14,1.27,1.71,.89,1.57-.38,2.14-3.87,2.07-5.14-.07-1.27-.78-6.48-.86-7.3-.07-.82,.71-.32,.72-.32,0,0-.02,.11,.5,2.22,.57,2.35,1.07,7.56,1.14,8.45,.08,.89-.85,1.59,.43,1.9,1.28,.32,1.07,2.29,1.78,3.36,.71,1.08,3.36,2.54,4.14,3.11,.78,.57,.28,.83-.57,.57-.85-.26-3.57-.83-4.63-2.92-1.07-2.1-2.14-2.22-2.14-2.22,0,0-3.64,1.02-4.07,1.78-.43,.76-1.93,2.48-3.71,4.76-1.78,2.29-7.92,5.59-11.42,6.86-3.5,1.27-5.06,2.22-6.06,2.79-1,.57-1,2.16-1,2.16l1.14-.19s0-.83,1.14-1.84c1.14-1.02,3-1.27,3-1.27,0,0,.57-.38,.5,1.4-.04,1.03-.29,2.42-.93,3.11-.65,.7-1.72,1.65-1.57,3.11,.15,1.46,1.36,2.41,2.86,4.06,1.5,1.65,3.28,2.99,4.07,3.75,.79,.76,14.22,3.64,15.43,3.74,1.6,.12,3.08,.43,4.51,.85,1.48-.15,3.41,.03,4.19-.91,.71,.45,1.2,1.09,1.24,2.05,.63-.15,1.22,.13,1.86-.18-.11,.35-.02,.57-.22,.94,.16,.38,.42,.51,.54,.93,.49-.03,1.16,.27,1.48,.28-.06,.07-.14,.13-.21,.19,1.42,.5,2.9,.93,4.49,1.23,.42-.11,.7-.28,1.02-.41,2.81-.05,2.26-2.51-.46-1.77-.46-.44-.47-.57-.52-1.14,1.4-.13,1.57-1.03,2.68-1.72-.11-.24-.34-.53-.46-.7,.35-.12,1.04-.26,1.36-.25-.39,.55-.23,1.07-.42,1.63,.43-.11,.99,.06,1.42-.1,.04,.1,.36,.19,.44,.18,.03,.28,.08,.6,.09,.89,.34-.22,.63-.19,.97-.6,.56,.21,1.1,0,1.62,.11-.04-.22-.07-.51-.11-.71,.89,.52,1.73,.69,1.19-.23,.42,.02,.48,.08,.87,.03M39.39,6.43s0,.01-.02,.04c0,0,.02-.02,.03-.03,.09-.09,.09-.09-.01-.01"/>
      <g>
        <path class="cls-2" d="M343.12,64.97c-.22,0-.31,.13-.4,.58-.22,1.51-.75,2.18-1.78,2.62-1.02,.4-2.89,.4-3.91,.4-3.86,0-4.58-.49-4.66-3.02-.04-.75,0-5.15,0-6.44v-3.16c0-.13,.04-.27,.27-.27,.67,0,4.84,.04,5.91,.18,1.51,.18,1.87,.62,2,1.15,.18,.49,.18,.89,.18,1.24,0,.22,.09,.36,.27,.36,.27,0,.36-.4,.36-.71,0-.27,.09-1.69,.18-2.44,.09-1.24,.31-1.87,.31-2.09s-.09-.31-.22-.31-.31,.22-.58,.49c-.4,.4-.98,.44-1.91,.53-.89,.09-6.04,.09-6.53,.09-.22,0-.22-.13-.22-.4v-10.26c0-.27,.04-.4,.22-.4,.44,0,4.97,.04,5.64,.13,2.13,.27,2.53,.53,2.8,1.16,.18,.44,.22,1.07,.22,1.33,0,.31,.09,.49,.31,.49,.18,0,.31-.22,.35-.4,.09-.44,.18-2.13,.22-2.49,.09-1.07,.31-1.51,.31-1.78,0-.18-.04-.35-.18-.35-.18,0-.36,.13-.53,.18-.31,.04-1.02,.18-1.78,.22-.89,.04-9.06,0-9.33,0-.22,0-2.75-.09-4.53-.09-.03,0-.04,0-.07,0-.02,0-.04,0-.07,0-1.16,0-2.84,.09-3.07,.09-.49,0-2.27-.09-3.82-.09-.62,0-.89,.09-.89,.31,0,.18,.22,.31,.45,.31,.44,0,.89,0,1.33,.13,.4,.14,.53,.49,.53,.8s-.18,.84-.36,1.42c-.85,2.71-5.95,15.59-8.22,20.65l-7.37-19.01c-.58-1.51-1.06-2.66-1.06-3.15,0-.27,.04-.49,.44-.67,.36-.13,.98-.18,1.42-.18,.27,0,.4-.18,.4-.35s-.35-.27-1.07-.27c-1.51,0-3.24,.09-3.64,.09-.49,0-2.71-.09-4.58-.09-.62,0-1.02,.04-1.02,.27,0,.13,.09,.35,.31,.35s.89,0,1.51,.13c1.29,.31,1.82,.71,2.71,2.85l9.6,23.14c.75,1.82,1.02,2.31,1.46,2.31,.4,0,.62-.58,1.69-2.84,.89-1.86,2.62-5.95,5.02-11.46,2-4.62,3.91-9.15,4.35-10.22,1.02-2.58,1.64-3.11,2.18-3.46,.59-.37,1.31-.43,1.68-.44,.37,0,.89,.05,1.16,.09,1.29,.18,1.51,.8,1.6,2.09,.09,1.2,.09,2.26,.09,8.13v6.66c0,3.64,0,6.62-.22,8.17-.18,1.11-.27,1.87-1.02,2-.36,.04-.84,.18-1.2,.18-.22,0-.31,.18-.31,.31,0,.22,.22,.31,.62,.31,.62,0,1.51-.04,2.27-.09,.84-.04,1.6-.04,1.69-.04,.58,0,1.6,0,3.24,.09,1.6,.04,3.86,.13,6.8,.13,1.51,0,1.91,0,2.18-.98,.22-.8,.54-3.38,.54-3.64s-.05-.58-.27-.58m-58.37,4.04c-7.06,0-12.35-5.51-12.35-14.3,0-8.22,4.71-12.3,11.24-12.3,6.17,0,11.68,4.75,11.68,13.81,0,10.93-7.06,12.79-10.57,12.79m-.89-28.03c-10.79,0-15.5,8.66-15.5,14.75,0,6.8,4.57,14.84,15.28,14.84,9.42,0,15.68-6.97,15.68-15.41s-6.66-14.17-15.46-14.17m-26.47,15.06c-.93,.62-2,.67-2.93,.67-1.73,0-3.73-.27-4.31-.58-.18-.13-.26-.27-.26-.49v-12.13c0-.22,.13-.35,.31-.44,.4-.09,1.64-.22,2.8-.22,4.17,0,6.75,2.71,6.75,7.42,0,2.89-1.02,4.89-2.36,5.77m15.01,13.41c-.22,0-.62,0-1.38-.13-.98-.13-2.27-.49-4.35-2.62-2.27-2.35-4.97-5.78-8.17-9.77,3.64-3.11,4.8-5.82,4.8-8.62,0-2.62-1.73-4.44-2.71-5.15-2.05-1.42-4.8-1.64-7.29-1.64-1.2,0-4.49,.09-4.89,.09-.22,0-2.84-.09-4.62-.09-.44,0-.62,.09-.62,.31,0,.14,.18,.31,.31,.31,.36,0,1.02,.05,1.33,.09,1.29,.18,1.51,.8,1.6,2.09,.09,1.2,.09,2.26,.09,8.13v6.66c0,3.64,0,6.62-.22,8.17-.18,1.11-.26,1.82-1.02,2-.36,.09-.84,.18-1.2,.18-.22,0-.31,.18-.31,.31,0,.22,.22,.31,.62,.31,1.2,0,3.82-.13,3.87-.13,.18,0,2.67,.13,4.8,.13,.44,0,.62-.13,.62-.31,0-.13-.05-.31-.31-.31-.35,0-1.2-.09-1.73-.18-1.2-.18-1.42-.89-1.55-2-.18-1.55-.18-4.49-.18-8.13v-.89c0-.22,.09-.31,.26-.31l4.98,.09c.27,0,.35,.04,.53,.22,.84,1.02,2.58,3.47,4.22,5.51,2.22,2.84,3.64,4.66,5.33,5.55,.98,.53,1.95,.75,4.18,.75h2.44c.71,0,.93-.09,.93-.31,0-.13-.13-.31-.36-.31m-31.4-16.03c-1.33,0-4.13,.14-4.35,.14s-3.02-.14-5.02-.14c-.49,0-.71,.09-.71,.36,0,.18,.18,.27,.36,.27,.4,0,1.16,.04,1.51,.13,1.78,.49,2,.98,2,4.57v7.55c0,.75-.31,1.24-.89,1.55-1.16,.66-3.47,.93-5.07,.93-4.09,0-8.13-1.33-11.64-4.75-1.55-1.51-4.71-6.04-4.71-12.3,0-5.2,1.82-9.24,4.4-11.28,3.38-2.66,6.71-2.93,9.51-2.93,5.73,0,9.33,1.91,10.44,3.6,.67,1.07,.89,2.31,.93,2.93,.05,.4,.09,.67,.31,.67,.31,0,.4-.22,.4-.93,0-4.44,.31-5.69,.31-6.31,0-.18-.09-.36-.53-.4-1.11-.04-2.67-.22-3.6-.44-.84-.18-4-.76-6.8-.76-3.42,0-7.82,.31-11.82,2.8-3.95,2.49-7.42,7.51-7.42,14.61,0,5.55,2.58,10.31,5.29,12.66,4.93,4.31,11.24,4.76,14.61,4.76,2.58,0,6.58-.49,9.42-2,.53-.31,.58-.4,.58-2.4v-4.98c0-1.86,0-3.2,.09-4.62,.09-1.55,.44-2.31,1.64-2.53,.53-.09,.8-.13,1.11-.13,.18,0,.35-.09,.35-.27,0-.26-.22-.36-.71-.36m-37.31,16.03c-.27,0-1.38-.13-2.4-.53-1.87-.75-2.31-1.24-5.6-4.17-1.6-1.47-9.73-9.59-10.75-10.7,.84-.93,7.5-7.33,8.48-8.22,1.73-1.64,2.49-2.49,4.09-3.2,.76-.31,1.6-.54,2.18-.54,.31,0,.4-.13,.4-.31s-.18-.27-.58-.27c-.98,0-3.55,.09-3.77,.09-.93,0-2.13-.09-2.93-.09-.27,0-.44,.09-.44,.27,0,.13,.13,.31,.36,.35,.31,.05,.49,.27,.49,.76,0,.62-1.02,1.6-2.13,2.71-1.47,1.51-8.44,8.4-9.06,9.1h-.18v-2.27c0-5.86,0-6.93,.09-8.13,.09-1.33,.35-1.87,1.38-2.09,.49-.09,.71-.09,.98-.09,.18,0,.31-.18,.31-.31,0-.22-.18-.31-.62-.31-1.15,0-3.51,.09-3.86,.09-.22,0-2.62-.09-4.4-.09-.44,0-.62,.09-.62,.31,0,.14,.18,.31,.31,.31,.36,0,1.02,.05,1.33,.09,1.29,.18,1.51,.8,1.6,2.09,.09,1.2,.09,2.26,.09,8.13v6.66c0,3.64,0,6.62-.22,8.17-.18,1.11-.27,1.82-1.02,2-.36,.09-.84,.18-1.2,.18-.22,0-.31,.18-.31,.31,0,.22,.22,.31,.62,.31,1.2,0,3.55-.13,3.87-.13s2.66,.13,4.58,.13c.44,0,.62-.13,.62-.31,0-.13-.09-.31-.31-.31-.36,0-.98-.09-1.51-.18-1.2-.18-1.38-.89-1.51-2-.18-1.55-.18-4.53-.18-8.17v-3.69h.18c1.87,2.22,10.08,10.88,11.86,12.26,1.69,1.29,2.71,2.13,4.75,2.31,.89,.09,1.6,.09,2.71,.09h2c.67,0,.84-.13,.84-.31s-.22-.31-.49-.31m-30.78-4.66c-.22,0-.36,.22-.4,.49-.13,.76-.44,1.55-.93,2.13-.93,1.11-2.67,1.16-4.71,1.16-3.07,0-4.57-.27-5.2-.89-.71-.67-.8-2.93-.8-8.48v-6.75c0-5.86,0-6.93,.04-8.13,.09-1.33,.31-1.91,1.47-2.13,.44-.05,1.02-.09,1.29-.09,.13,0,.31-.13,.31-.27,0-.22-.22-.31-.62-.31-1.2,0-4.13,.09-4.31,.09-.22,0-2.67-.09-4.44-.09-.44,0-.62,.09-.62,.31,0,.14,.18,.31,.31,.31,.36,0,1.02,.05,1.33,.09,1.29,.18,1.51,.8,1.6,2.09,.09,1.2,.09,2.26,.09,8.13v6.66c0,3.64,0,6.62-.22,8.17-.18,1.11-.27,1.82-1.02,2-.36,.09-.84,.18-1.2,.18-.22,0-.31,.18-.31,.31,0,.22,.22,.31,.62,.31,.62,0,1.47-.04,2.27-.09,.75-.04,1.42-.04,1.6-.04,1.15,0,2.49,.04,4.26,.09,1.82,.09,4,.13,6.8,.13,2.09,0,2.22-.13,2.49-1.02,.31-1.11,.58-3.38,.58-3.77s-.09-.58-.27-.58m-22.57-.71c-.22,0-.31,.18-.4,.67-.31,1.82-.84,2.71-2,3.2-1.15,.49-3.11,.49-4.26,.49-4.35,0-5.02-.58-5.15-3.64-.05-.93,0-6.09,0-7.6v-3.91c0-.18,.09-.31,.31-.31,.76,0,5.15,.09,6.35,.22,1.73,.18,2.13,.93,2.31,1.56,.18,.58,.18,1.02,.18,1.46,0,.22,.09,.4,.31,.4,.31,0,.31-.49,.31-.84,0-.31,.09-1.95,.18-2.84,.13-1.46,.35-2.22,.35-2.49s-.09-.36-.22-.36c-.18,0-.36,.22-.67,.58-.4,.44-1.02,.53-2.09,.62-1.02,.09-6.49,.09-7.06,.09-.22,0-.27-.14-.27-.44v-12.26c0-.31,.09-.45,.27-.45,.49,0,5.33,.04,6.09,.13,2.4,.27,2.84,.8,3.16,1.51,.22,.53,.27,1.29,.27,1.6,0,.35,.09,.58,.36,.58,.18,0,.27-.26,.31-.49,.09-.53,.18-2.49,.22-2.93,.13-1.24,.36-1.78,.36-2.09,0-.22-.05-.4-.18-.4-.22,0-.4,.18-.62,.22-.36,.09-1.07,.18-1.91,.22-1.02,.05-9.86,.05-10.17,.05l-1.82-.09c-.98-.04-2.18-.04-3.2-.04-.49,0-.71,.09-.71,.36,0,.18,.18,.27,.36,.27,.4,0,1.15,.04,1.51,.13,1.47,.31,1.82,1.02,1.91,2.53,.09,1.42,.09,2.66,.09,9.59v7.82c0,4.26,0,7.77-.22,9.64-.18,1.29-.4,2.27-1.29,2.44-.4,.09-.94,.18-1.33,.18-.27,0-.35,.13-.35,.27,0,.27,.22,.36,.71,.36,.67,0,1.69-.09,2.58-.09,.93-.04,1.69-.04,1.78-.04,.67,0,1.73,.04,3.46,.13,1.73,.04,4.18,.13,7.51,.13,1.73,0,2.09,0,2.4-1.15,.22-.93,.58-3.95,.58-4.31,0-.31,0-.67-.27-.67"/>
        <path class="cls-2" d="M156.25,35.2c-1.02-.91-1.27-2.11-1.27-3.1,0-.7,.24-1.93,1.17-2.86,.63-.63,1.58-1.12,3.2-1.12,.42,0,1.01,.03,1.52,.13,.4,.07,.73,.14,1.07,.16,.12,0,.14,.05,.14,.11,0,.08-.03,.21-.05,.59-.02,.35-.02,.92-.03,1.08-.01,.16-.03,.22-.09,.22-.07,0-.08-.07-.08-.22,0-.41-.17-.84-.44-1.07-.37-.31-1.17-.6-2.1-.6-1.39,0-2.04,.41-2.41,.76-.76,.73-.94,1.67-.94,2.74,0,2,1.54,3.84,3.78,3.84,.79,0,1.4-.09,1.82-.52,.22-.23,.36-.69,.39-.88,.02-.12,.04-.16,.1-.16,.05,0,.07,.07,.07,.16,0,.07-.12,.99-.23,1.34-.06,.2-.08,.22-.27,.3-.42,.17-1.22,.24-1.89,.24-1.57,0-2.63-.39-3.46-1.13"/>
        <path class="cls-2" d="M166.78,33.6c0,.86,0,1.56,.04,1.93,.03,.26,.06,.43,.34,.47,.14,.02,.34,.04,.42,.04,.05,0,.07,.04,.07,.07,0,.04-.04,.07-.15,.07-.51,0-1.11-.03-1.15-.03-.05,0-.63,.03-.91,.03-.1,0-.15-.02-.15-.07,0-.03,.02-.07,.07-.07,.08,0,.2-.02,.28-.04,.18-.04,.21-.21,.24-.47,.04-.37,.05-1.07,.05-1.93v-1.57c0-1.38,0-1.64-.02-1.92-.02-.3-.09-.44-.29-.48-.1-.02-.22-.03-.28-.03-.04,0-.07-.04-.07-.07,0-.05,.04-.07,.15-.07,.3,0,.88,.02,.93,.02,.04,0,.64-.02,.92-.02,.11,0,.15,.02,.15,.07,0,.03-.04,.07-.07,.07-.06,0-.13,0-.23,.02-.25,.05-.3,.18-.33,.49-.01,.28-.01,.54-.01,1.92v1.57Z"/>
        <path class="cls-2" d="M173.6,33.6c0,.86,0,1.56,.04,1.93,.03,.26,.07,.43,.36,.47,.13,.02,.34,.04,.42,.04,.06,0,.07,.04,.07,.07,0,.04-.04,.07-.15,.07-.5,0-1.09-.03-1.14-.03-.04,0-.68,.03-.95,.03-.1,0-.15-.02-.15-.07,0-.03,.02-.06,.07-.06,.08,0,.19-.02,.27-.04,.19-.04,.24-.22,.27-.48,.04-.37,.04-1.07,.04-1.93v-3.74l-1.33,.02c-.58,.01-.8,.07-.93,.28-.1,.16-.11,.22-.15,.28-.02,.07-.05,.08-.1,.08-.02,0-.06-.02-.06-.07,0-.09,.19-.89,.2-.97,.02-.05,.06-.17,.09-.17,.06,0,.16,.07,.41,.1,.26,.03,.62,.04,.72,.04h3.48c.3,0,.51-.02,.66-.04,.14-.02,.22-.04,.26-.04s.04,.05,.04,.1c0,.27-.03,.91-.03,1.02,0,.07-.04,.12-.08,.12s-.06-.03-.07-.16v-.09c-.04-.27-.24-.47-1.12-.49l-1.15-.02v3.74Z"/>
        <path class="cls-2" d="M180.81,33.87c0-.48-.06-.66-.2-.91-.07-.14-1.32-2.12-1.64-2.59-.22-.34-.44-.53-.61-.65-.14-.08-.32-.12-.39-.12-.05,0-.1-.04-.1-.08s.03-.06,.12-.06c.18,0,.87,.02,.91,.02,.06,0,.44-.02,.8-.02,.1,0,.13,.02,.13,.06,0,.03-.06,.06-.15,.09-.07,.03-.12,.07-.12,.15,0,.13,.06,.23,.13,.35l1.68,2.78c.19-.38,1.34-2.28,1.51-2.58,.12-.2,.16-.35,.16-.46,0-.13-.04-.2-.15-.23-.08-.02-.14-.06-.14-.1,0-.03,.05-.05,.15-.05,.24,0,.56,.02,.64,.02,.06,0,.72-.02,.9-.02,.06,0,.12,.02,.12,.05,0,.04-.04,.09-.12,.09-.1,0-.28,.03-.43,.12-.18,.11-.26,.2-.46,.44-.3,.36-1.6,2.45-1.79,2.83-.16,.32-.12,.6-.12,.89v.77c0,.15,0,.52,.03,.89,.02,.26,.08,.43,.36,.47,.13,.02,.34,.04,.42,.04,.05,0,.07,.04,.07,.07,0,.04-.05,.07-.15,.07-.51,0-1.11-.03-1.16-.03-.04,0-.63,.03-.9,.03-.1,0-.15-.02-.15-.07,0-.03,.02-.07,.07-.07,.08,0,.19-.02,.27-.04,.19-.04,.25-.21,.27-.47,.02-.37,.02-.74,.02-.89v-.77Z"/>
        <path class="cls-2" d="M194.33,35.94c.83,0,2.5-.44,2.5-3.02,0-2.14-1.3-3.26-2.76-3.26-1.54,0-2.65,.97-2.65,2.9,0,2.08,1.25,3.38,2.91,3.38m-.21-6.61c2.08,0,3.65,1.27,3.65,3.34s-1.48,3.64-3.7,3.64c-2.53,0-3.61-1.9-3.61-3.5,0-1.44,1.11-3.48,3.66-3.48"/>
        <path class="cls-2" d="M201.26,32.03c0-1.38,0-1.64-.02-1.92-.02-.3-.07-.45-.38-.49-.07-.01-.23-.02-.31-.02-.03,0-.07-.04-.07-.07,0-.05,.04-.07,.15-.07,.42,0,1,.02,1.05,.02,.18,0,2.18,.01,2.39,0,.18,0,.34,0,.42-.04,.05,0,.09-.05,.13-.05,.04,0,.06,.04,.06,.08,0,.06-.04,.17-.07,.42,0,.08-.02,.48-.04,.59,0,.04-.04,.09-.08,.09s-.07-.04-.07-.1c0-.07-.03-.22-.09-.33-.05-.12-.27-.26-.63-.26l-1.51-.02c-.05,0-.07,.02-.07,.09v2.43c0,.05,0,.08,.06,.08h1.26c.16-.01,.29-.01,.42-.02,.22-.02,.34-.05,.43-.16,.04-.05,.08-.09,.12-.09,.04,0,.05,.03,.05,.07,0,.05-.06,.2-.08,.49-.02,.18-.03,.53-.03,.6,0,.08-.02,.18-.08,.18-.05,0-.06-.04-.06-.08-.01-.09-.02-.22-.06-.32-.04-.13-.19-.24-.47-.28-.23-.03-1.32-.02-1.48-.02-.05,0-.06,.02-.06,.08v.71c0,.88,0,1.58,.04,1.93,.03,.26,.08,.43,.34,.47,.14,.02,.34,.04,.42,.04,.05,0,.07,.04,.07,.07,0,.04-.04,.07-.15,.07-.51,0-1.11-.03-1.15-.03-.05,0-.63,.03-.91,.03-.09,0-.15-.02-.15-.07,0-.03,.02-.07,.07-.07,.08,0,.2-.03,.28-.04,.18-.03,.2-.21,.24-.47,.05-.37,.05-1.07,.05-1.93v-1.57Z"/>
      </g>
    </g>
  </g>
</svg>