<?xml version="1.0" encoding="UTF-8" standalone="no"?>
<!DOCTYPE svg PUBLIC "-//W3C//DTD SVG 1.1//EN" "http://www.w3.org/Graphics/SVG/1.1/DTD/svg11.dtd">
<svg width="100%" height="100%" viewBox="0 0 1500 1500" version="1.1" xmlns="http://www.w3.org/2000/svg" xmlns:xlink="http://www.w3.org/1999/xlink" xml:space="preserve" xmlns:serif="http://www.serif.com/" style="fill-rule:evenodd;clip-rule:evenodd;stroke-linejoin:round;stroke-miterlimit:2;">
    <path d="M301.345,931.203C308.267,930.866 316.227,931.062 323.232,931.074C322.397,946.907 324.081,962.996 324.326,978.847C324.447,986.664 324.688,994.445 325.104,1002.25C334.409,1006.3 345.97,1010.22 355.656,1013.8L407.821,1033.04L569.354,1092.71L691.503,1137.89C706.391,1143.4 738.438,1156.22 752.717,1159.96C764.675,1156.76 788.481,1147.3 801.012,1142.71L889.812,1110.26L1184.58,1002.61C1182.57,984.144 1184.65,954.289 1183.55,933.971C1194.01,933.496 1202.62,933.577 1213.05,933.867C1212.54,945.777 1212.7,958.136 1212.69,970.093C1212.73,987.373 1213.11,1005.94 1212.47,1023.12L862.892,1150.86C835.922,1160.72 779.34,1182.14 752.727,1190.28C749.82,1191.16 670.495,1160.93 659.838,1157L422.722,1069.41C381.979,1054.32 338.026,1037.07 297.192,1023.1C296.605,1014.62 293.805,935.318 294.726,933.118C296.772,931.338 298.59,931.497 301.345,931.203Z" style="fill-rule:nonzero;"/>
    <path d="M750.637,359.753C753.584,359.323 756.526,358.955 759.372,359.959C776.153,365.878 793.143,372.385 809.823,378.55L914.601,417.239C1012.35,453.38 1112.66,489.17 1209.8,526.37C1210.19,531.393 1210.51,536.52 1210.57,541.555C1210.89,566.696 1213.69,592.736 1213.45,617.798C1203.67,618.188 1194.68,618.108 1184.89,617.986C1185.11,598.269 1182.96,567.513 1182.16,546.886L758.219,390.362C755.405,389.808 753.193,389.905 750.486,390.836C734.3,396.403 718.094,402.486 702.024,408.379L614.71,440.29L322.97,546.775L322.996,615.923C312.648,616.252 304.128,616.254 293.776,615.923C295.284,592.553 294.448,551.184 293.966,526.989C303.348,522.418 329.943,513.498 340.464,509.68L430.219,476.944L750.637,359.753Z" style="fill-rule:nonzero;"/>
    <path d="M144.295,646.081L144.712,646.073L192.487,645.814C204.874,645.798 217.632,644.899 229.819,647.286C274.513,656.04 268.982,687.197 268.944,722.315L268.905,793.291C268.751,808.788 266.236,816.927 254.946,827.994C235.577,842.32 216.082,840.333 193.324,840.329C176.95,840.327 160.597,840.3 144.218,839.998C145.197,831.732 144.854,819.018 144.848,810.425L144.833,763.514L144.838,692.616C144.837,677.496 145.164,661.065 144.295,646.081ZM185.367,812.185C195.936,812.588 215.449,814.309 223.3,807.441C226.611,804.545 228.047,795.274 228.119,790.728C228.446,770.244 228.341,749.968 228.291,729.427C228.257,715.718 228.768,699.822 227.38,686.144C227.074,683.127 224.748,680.538 222.788,678.353C213.34,671.753 196.785,673.633 185.32,673.945C186.794,704.803 185.197,736.893 185.764,767.873C186.022,781.961 186.248,798.18 185.367,812.185Z" style="fill-rule:nonzero;"/>
    <path d="M989.208,642.599C1006.25,640.225 1031.39,642.995 1045.67,653.124C1060.23,663.449 1063.64,678.228 1063.46,694.961C1063.3,710.606 1063.26,726.351 1063.28,741.988L1063.44,779.236C1063.51,794.995 1064.93,811.052 1054.69,824.382C1045.01,836.983 1029.71,841.638 1014.58,843.582C995.481,844.827 974.252,844.477 957.912,833.061C934.383,816.621 940.537,788.121 939.827,763.54C939.634,756.833 939.635,749.359 939.878,742.618C941.572,695.538 926.484,650.405 989.208,642.599ZM1003.11,670.363C995.124,670.309 983.134,673.273 981.924,682.782C979.574,701.172 980.924,720.427 980.704,739.032C980.484,758.079 980.654,777.316 980.994,796.356C981.424,809.957 986.624,813.579 999.484,815.692C1007.87,816.298 1020.46,812.029 1021.12,802.58C1023.71,765.511 1022.02,727.154 1021.97,689.951C1021.95,676.601 1015.17,672.413 1003.11,670.363Z" style="fill-rule:nonzero;"/>
    <path d="M1181.33,646.068C1193.49,645.878 1205.13,645.876 1217.29,646.064C1215.78,697.718 1217.5,749.957 1216.85,801.664C1216.69,814.214 1216.6,827.587 1217.19,840.1L1193.48,840.25C1187.26,840.291 1180.82,840.103 1174.58,840.007C1173.58,834.207 1167.32,817.982 1165.09,811.819L1145.67,758.15C1139.14,740.079 1133.26,719.722 1124.11,703.064L1125.04,840.084C1112.61,840.258 1100.7,840.241 1088.27,840.035C1088.55,831.645 1088.6,823.043 1088.52,814.646C1088.01,758.54 1089.38,702.138 1088.3,646.061C1104.96,645.625 1124.13,645.677 1140.76,646.114C1142.43,654.368 1154.33,686.223 1157.86,695.467C1165.34,715.035 1173.1,741.356 1181.78,759.498C1182.02,753.726 1181.94,748.088 1181.81,742.315C1181.12,710.241 1181.73,678.145 1181.33,646.068Z" style="fill-rule:nonzero;"/>
    <path d="M640.792,646.08C654.703,645.771 668.699,645.843 682.611,646.08C681.379,673.006 682.62,701.501 681.883,728.781C691.404,729.416 720.22,729.976 728.843,728.204C728.757,727.982 728.682,727.755 728.585,727.537C727.131,724.28 728.299,657.857 727.654,646.076C741.479,645.776 755.428,645.848 769.255,646.068C767.949,692.284 769.707,740.254 768.988,786.61C768.724,803.681 769.727,823.366 768.894,840.1C755.293,840.356 741.253,840.359 727.679,839.965C728.506,831.47 728.167,818.166 728.163,809.466L728.05,757.328C714.094,756.625 695.834,756.792 681.871,757.317C683.183,783.544 680.65,814.881 682.563,840.097C669.053,840.347 654.315,840.47 640.899,839.937C641.801,832.037 641.463,818.975 641.461,810.712L641.456,760.461L641.466,691.044C641.464,676.686 641.828,660.223 640.792,646.08Z" style="fill-rule:nonzero;"/>
    <path d="M1290.02,642.594C1310.23,640.655 1334.98,642.37 1350.36,657.044C1365.83,671.801 1362.69,692.224 1362.94,711.599C1351.14,712.086 1335.95,712.126 1324.21,711.477C1325.13,693.508 1328.33,668.917 1302.17,670.462C1283.43,671.568 1282.79,684.971 1282.88,699.983C1283.08,732.752 1282.27,765.657 1283.34,798.396C1284.01,818.724 1311.78,821.171 1322.99,806.17C1325.54,793.764 1324.78,774.236 1324.89,760.916C1318.9,760.272 1311.23,760.294 1305.1,760.146C1305.56,754.507 1305.43,747.166 1305.49,741.39L1305.02,733.121C1319.55,732.008 1348.32,732.238 1363.09,732.97C1362.58,748.384 1362.85,763.799 1362.9,779.207C1362.99,794.914 1364.52,812.221 1353.9,825.363C1336.34,847.103 1298.16,846.936 1273.53,840.185C1257.96,835.914 1243.46,820.014 1242.52,803.588C1241.43,784.606 1242.16,764.638 1242.15,745.435L1242,706.411C1241.96,695.208 1241.11,683.728 1244.81,672.994C1251.97,652.261 1270.08,645.101 1290.02,642.594Z" style="fill-rule:nonzero;"/>
    <path d="M796.662,646.059C810.394,645.761 824.299,645.849 838.032,646.095C836.432,696.865 837.881,749.393 838.244,800.243C838.387,820.281 876.185,822.719 876.353,797.664C876.691,747.265 877.498,696.454 876.538,646.053C889.492,645.834 902.229,645.86 915.177,646.072C914.691,654.482 914.845,663.701 914.816,672.18L914.842,759.351C914.883,774.214 916.082,792.895 914,806.95C909.625,836.48 879.718,845.028 854.131,843.824C837.534,843.043 822.981,841.99 810.177,830.182C796.37,817.258 796.897,802.525 796.802,785.515C796.543,739.244 797.589,692.223 796.662,646.059Z" style="fill-rule:nonzero;"/>
    <path d="M296.612,646.057C310.427,645.776 324.344,645.839 338.159,646.104C337.362,654.905 337.639,666.458 337.627,675.489L337.588,722.607L337.581,770.03C337.583,778.148 336.301,803.854 341.387,809.642C349.952,819.391 374.873,817.977 376.075,800.578C377.352,782.11 376.533,762.913 376.767,744.327C376.475,711.607 377.311,678.713 376.439,646.056C389.461,645.836 402.248,645.863 415.263,646.071C414.803,654.869 414.813,663.284 414.791,672.085L414.798,760.106C414.826,774.564 415.913,793.503 413.872,807.605C410.126,833.483 384.465,843.643 361.225,843.799C342.532,843.925 323.757,843.286 309.327,829.279C296.277,816.848 296.809,801.587 296.751,785.223C296.588,738.942 297.369,692.285 296.612,646.057Z" style="fill-rule:nonzero;"/>
    <path d="M488.017,642.596C509.587,641.403 533.333,641.541 549.503,658.318C563.551,672.893 560.879,692.571 560.64,711.161L522.382,711.048C522.675,700.753 524.315,684.791 517.605,676.348C510.796,667.78 493.858,669.197 486.173,675.759C481.418,679.82 481.564,686.453 480.975,692.166C480.709,718.124 480.531,744.183 480.732,770.15C480.816,780.905 477.911,805.769 488.116,812.074C498.94,818.763 511.608,816.003 520.464,807.315C523.204,796.462 522.677,788.772 522.603,777.649L522.475,768.206C535.564,767.749 547.85,767.872 560.923,768.232C560.536,787.024 563.798,808.642 552.733,824.196C544.878,835.194 530.62,841.176 517.502,843.032C487.297,847.306 444.416,841.471 440.463,803.741C438.667,786.593 440.025,764.551 440.012,746.452L439.886,707.281C439.833,691.488 438.373,674.385 448.946,661.155C459.018,648.554 472.604,644.551 488.017,642.596Z" style="fill-rule:nonzero;"/>
    <path d="M616.089,868.298C629.549,867.581 643.978,867.964 657.508,867.858C664.57,867.802 668.729,869.763 672.605,875.617C673.021,889.572 673.36,912.158 672.079,926.599C671.972,927.809 670.063,929.874 669.127,930.871C667.771,931.872 665.579,933.373 663.94,933.507C648.934,934.73 630.903,933.973 615.903,933.798C616.947,913.256 616.466,889.007 616.089,868.298ZM635.31,923.602C644.663,923.712 652.482,923.683 661.81,923.182C660.47,910.468 662.234,893.059 661.585,879.776C659.53,878.15 659.515,878.703 656.263,878.527C646.547,878.475 636.586,878.241 626.911,878.898C628.279,893.118 626.893,908.021 627.5,922.199C629.697,923.689 632.556,923.473 635.31,923.602Z" style="fill-rule:nonzero;"/>
    <path d="M486.098,868.15L487.01,868.105C498.12,867.6 532.863,863.71 532.698,879.744C532.513,897.638 532.433,915.921 532.667,933.872L520.631,933.766C520.983,927.295 520.302,920.036 521.562,913.775C512.826,912.636 495.83,913.283 486.791,913.516C487.153,919.853 487.018,927.442 487.067,933.875L475.344,933.75C476.31,916.544 475.68,892.919 475.631,875.363C475.62,871.404 480.735,868.492 486.098,868.15ZM513.42,878.444C505.489,878.527 494.668,878.5 486.59,878.954C486.419,885.355 486.442,895.997 486.556,902.218L494.002,902.417C503.038,902.794 513.012,902.405 521.744,902.278C521.593,899.742 521.606,887.035 521.568,881.208C521.546,877.778 517.035,878.407 513.42,878.444Z" style="fill-rule:nonzero;"/>
    <path d="M685.896,868.21C689.64,868.077 693.536,868.272 697.293,868.383C696.708,886.626 697.45,904.979 696.48,923.175C703.74,923.854 711.436,923.62 718.702,923.22C717.522,905.3 719.174,886.389 717.691,868.359C721.871,868.104 725.821,868.267 729.999,868.367C728.919,885.987 730.615,906.32 729.048,923.173C736.185,923.834 743.489,923.665 750.63,923.182C749.819,916.871 750.019,909.856 750.017,903.442C750.047,891.704 750.087,880.08 749.822,868.339C753.727,868.11 757.743,868.273 761.664,868.347C760.811,883.622 761.506,899.138 761.347,914.456C761.532,918.847 760.582,929.124 756.416,931.804C748.654,936.796 732.663,932.615 724.381,933.093C713.373,933.729 704.142,934.155 693.53,933.755C690.086,931.497 689.273,930.551 686.419,927.518C685.437,921.958 685.125,872.972 685.896,868.21Z" style="fill-rule:nonzero;"/>
    <path d="M546.557,868.295C549.029,868.172 555.921,867.63 557.415,869.05C568.495,879.58 581.358,903.304 592.33,912.757C591.576,899.058 591.998,882.399 591.751,868.277C595.953,868.041 599.941,868.254 604.141,868.396C603.044,888.4 603.532,913.53 603.764,933.831C600.031,933.922 596.031,933.808 592.276,933.771C581.089,920.523 570.267,901.903 557.988,890.049L558.132,933.857L546.389,933.793C547.244,925.871 546.937,915.149 546.953,907.044C546.979,894.223 547.01,881.098 546.557,868.295Z" style="fill-rule:nonzero;"/>
    <path d="M415.586,868.192C429.117,867.724 450.245,867.575 463.559,868.431C463.451,871.665 463.484,874.938 463.482,878.177C448.789,878.742 434.124,877.853 419.413,878.997C419.814,885.091 419.689,889.519 418.89,895.527C423.91,895.749 430.359,895.929 435.255,895.735C451.199,895.104 464.173,892.717 463.224,913.992C462.783,923.854 464.362,928.421 454.416,933.753C440.113,934.515 420.078,934.017 405.74,933.754C406.582,929.338 405.431,928.472 406.378,924.809C408.622,922.956 444.146,923.553 449.93,923.319C449.679,917.907 449.779,912.142 449.782,906.693C439.708,905.903 428.57,906.012 418.432,906.474C402.745,907.188 406.254,886.08 406.376,875.126C409.506,871.451 411.072,869.85 415.586,868.192Z" style="fill-rule:nonzero;"/>
    <path d="M1037.75,905.879C1027.97,898.65 1032.31,896.151 1031.28,885.909C1030.07,873.928 1033.89,867.782 1047.38,867.881C1060.42,867.978 1075.29,867.327 1088.47,868.459C1088.46,871.613 1088.36,875.053 1088.43,878.178C1074.33,878.48 1058.01,877.955 1044.36,878.938C1044.46,884.703 1044.55,889.771 1044.23,895.517C1078.46,896.863 1090.14,885.401 1087.47,926.532C1084.89,930.124 1083.84,931.266 1080.12,933.715C1067.83,934.208 1041.48,933.016 1031.68,934.236C1032.02,931.196 1031.98,926.687 1032.05,923.522C1044.61,923.835 1062.75,923.975 1075.17,923.303C1074.76,917.199 1074.48,912.809 1074.96,906.705C1062.33,905.807 1049.95,906.699 1037.75,905.879Z" style="fill-rule:nonzero;"/>
    <path d="M967.079,875.656C973.11,866.962 980.436,867.761 990.17,867.786C1001.33,867.814 1012.66,867.813 1023.79,868.374C1023.48,872.353 1023.43,874.215 1023.67,878.193C1008.36,878.774 993.233,877.959 977.784,878.94C978.215,885.064 977.985,889.335 977.678,895.516C991.894,896.304 1008.97,895.683 1023.63,896.025C1023.16,900.136 1023.36,902.006 1023.66,906.04C1008.49,906.477 992.879,905.632 977.801,906.773C978.271,912.954 978.024,916.94 977.673,923.189C990.765,924.07 1009.9,923.785 1023.25,923.514C1023.16,926.231 1022.84,931.639 1023.22,934.108C1009.43,933.046 990.136,934.425 974.946,933.688C963.564,926.963 967.259,914.592 966.825,902.939C966.494,894.085 966.987,884.583 967.079,875.656Z" style="fill-rule:nonzero;"/>
    <path d="M940.661,868.36C944.825,868.046 948.857,868.235 953.023,868.353C952.183,889.654 953.704,913.232 952.624,933.877L940.7,933.743C941.461,926.893 941.077,914.502 941.328,906.896C931.74,905.612 916.504,906.14 906.731,906.755C907.406,914.885 907.251,925.548 907.311,933.875L896.389,933.855C896.069,911.076 895.503,891.26 896.347,868.18C900.002,868.155 903.827,868.306 907.496,868.39C907.322,877.528 907.074,886.403 906.663,895.534C917.495,896.175 931.112,895.813 941.995,895.552C940.722,886.367 941.329,877.616 940.661,868.36Z" style="fill-rule:nonzero;"/>
    <path d="M841.197,868.174C853.765,867.554 875.314,867.723 887.84,868.331L887.878,878.199C872.643,878.776 857.708,877.978 842.282,878.962C843.477,887.804 842.965,914.184 842.215,923.166C847.936,923.722 854.595,923.587 860.413,923.615L887.945,923.758L887.676,933.853C873.011,934.145 853.957,934.412 839.509,933.672C834.841,930.943 832.437,928.513 832.005,922.993C830.809,907.725 831.616,890.336 831.865,875.034C835.003,871.341 836.578,869.624 841.197,868.174Z" style="fill-rule:nonzero;"/>
    <path d="M772.585,868.29C785.004,867.692 807.975,867.591 820.211,868.48C819.855,872.313 819.931,874.272 820.127,878.139C814.124,878.242 807.776,878.648 801.752,878.932C802.218,889.149 802.461,913.324 801.186,923.125C806.782,923.685 814.504,923.699 820.266,923.877C819.894,927.26 819.956,930.369 819.941,933.764C805.401,934.195 786.638,934.348 772.218,933.691C772.437,930.197 772.243,927.288 772.084,923.812L790.88,923.281C789.61,911.611 790.3,891.005 790.434,878.917C784.339,878.501 778.138,878.356 772.025,878.15C772.264,874.743 772.075,871.674 772.585,868.29Z" style="fill-rule:nonzero;"/>
    <path d="M732.792,480.036C738.394,479.276 756.283,479.03 760.98,481.009C780.636,489.292 797.377,516.051 815.066,526.97L816.04,527.565C811.65,520.932 807.77,512.127 803.391,505.038C797.475,495.459 791.877,489.829 784.237,481.749C798.632,482.018 822.633,482.235 834.272,490.577C848.174,500.54 860.388,515.198 874.744,524.784L875.587,525.34C870.755,516.719 863.258,501.981 855.968,495.878C855.045,495.105 854.811,494.983 853.8,493.924C869.218,490.547 919.816,516.214 931.676,527.874C941.716,534.371 954.025,558.375 941.875,567.693C926.444,579.526 874.725,576.439 855.984,576.441L755.493,576.413L656.385,576.447C637.104,576.448 617.412,576.913 598.181,575.843C586.663,575.203 563.94,574.493 561.111,560.169C555.836,533.456 598.987,508.244 619.704,503.275C637.951,507.155 666.342,527.082 684.644,532.702C668.182,517.035 661.754,507.341 639.266,497.983L643.615,493.926C688.189,485.487 680.036,476.539 722.247,510.095C727.38,514.176 738.062,523.012 744.016,525.769L744.987,526.209C735.921,512.023 721.015,491.073 705.82,483.993C715.369,481.309 722.986,480.842 732.792,480.036Z" style="fill:rgb(218,154,41);fill-rule:nonzero;"/>
    <path d="M790.562,1023.88C784.186,1026.14 773.013,1033.04 765.523,1036.44C772.42,1044.68 780.725,1051.44 787.747,1059.49C790.53,1062.69 792.989,1070.89 795.836,1074.48C800.995,1080.99 807.247,1085.39 813.216,1091.69C812.118,1095.82 812.48,1096.79 808.652,1098.81C801.333,1099.33 795.508,1087.31 790.194,1082.87C785.319,1078.8 780.236,1079.8 775.13,1075.78C768.714,1070.73 757.254,1056.7 751.437,1051.63C738.888,1058.6 716.274,1088.92 704.465,1098.63C701.095,1101.41 694.709,1101.8 692.865,1099.96C688.9,1096.01 693.422,1087.87 693.422,1087.87C696.855,1082.75 698.412,1080.6 703.134,1076.6C716.378,1065.41 728.918,1053.81 741.361,1041.72C733.618,1034.3 723.698,1025.33 716.992,1017.16C713.083,1011.27 710.952,1005.29 706.451,999.681C702.093,994.251 689.966,988.732 693.684,980.461C704.179,976.207 709.736,991.248 716.24,996.018C721.086,999.266 727.103,999.687 731.776,1003.41C739.566,1009.62 746.679,1020.05 754.788,1025.6C758.803,1020.44 762.131,1013.75 765.268,1007.93L765.332,1007.75C766.026,1005.8 767.819,1002.08 768.673,1000.16C772.479,990.622 779.939,980.802 789.554,976.719C801.263,972.508 813.244,973.277 817.575,986.974C818.973,995.839 818.316,999.707 813.061,1007.43C809.116,1013.23 797.3,1021.86 790.717,1023.84L790.562,1023.88ZM698.828,1090.84C697.296,1090.84 696.052,1092.08 696.052,1093.61C696.052,1095.14 697.296,1096.39 698.828,1096.39C700.361,1096.39 701.605,1095.14 701.605,1093.61C701.605,1092.08 700.361,1090.84 698.828,1090.84ZM810.156,994.164C810.156,994.164 808.519,998.023 804.392,1002.82C800.265,1007.62 793.648,1013.35 783.688,1017.1C783.688,1017.1 808.226,1014.73 810.156,994.164ZM775.591,1015.22C804.316,1008.51 807.146,988.383 807.146,988.383C798.271,997.557 790.382,1004.26 784.712,1008.68C779.042,1013.09 775.591,1015.22 775.591,1015.22ZM774.594,1014.11C774.594,1014.11 777.055,1010.89 782.023,1005.7C786.991,1000.51 794.466,993.344 804.496,985.448C804.496,985.448 784.185,986.217 774.594,1014.11ZM799.05,981.866C778.39,981.694 773.547,1005.87 773.547,1005.87C778.288,996.338 784.664,990.338 789.854,986.72C795.045,983.102 799.05,981.866 799.05,981.866Z" style="fill:rgb(218,154,41);fill-rule:nonzero;"/>
</svg>
