<svg xmlns="http://www.w3.org/2000/svg" xmlns:xlink="http://www.w3.org/1999/xlink" width="722" zoomAndPan="magnify" viewBox="0 0 541.5 113.999999" height="152" preserveAspectRatio="xMidYMid meet" version="1.0"><defs><g/><clipPath id="6a1ff89ea7"><path d="M 0 0.0507812 L 532 0.0507812 L 532 113.945312 L 0 113.945312 Z M 0 0.0507812 " clip-rule="nonzero"/></clipPath><clipPath id="173ae4f43b"><path d="M 147.441406 19 L 233.671875 19 L 233.671875 97.949219 L 147.441406 97.949219 Z M 147.441406 19 " clip-rule="nonzero"/></clipPath><clipPath id="ef958e09e2"><path d="M 147.613281 74.8125 C 147.613281 63.089844 157.628906 54.777344 163.644531 51.875 C 159.4375 46.265625 158.933594 42.058594 158.835938 37.550781 C 158.730469 29.632812 165.75 19.117188 183.179688 19.117188 C 188.082031 19.117188 192.589844 20.121094 195.300781 21.222656 C 197.003906 21.824219 197.003906 22.628906 197.003906 23.828125 C 197.003906 27.132812 196.203125 35.144531 195.902344 36.648438 C 195.703125 38.152344 195.300781 38.355469 194.699219 38.355469 C 194.09375 38.355469 194 37.953125 194 36.449219 C 194 33.84375 193.300781 30.636719 191.097656 28.03125 C 189.09375 25.628906 185.589844 23.523438 179.976562 23.523438 C 175.773438 23.523438 169.261719 26.425781 169.261719 34.9375 C 169.261719 44.351562 177.878906 52.367188 185.886719 61.28125 C 189.296875 65.1875 201.613281 76.304688 203.515625 78.011719 C 205.519531 75.203125 208.324219 68.691406 208.324219 62.582031 C 208.324219 61.082031 207.921875 59.28125 206.417969 57.976562 C 205.117188 56.78125 203.210938 56.578125 201.707031 56.472656 C 201.105469 56.472656 200.109375 56.273438 200.109375 55.671875 C 200.109375 54.867188 201.113281 54.664062 201.910156 54.664062 C 204.3125 54.664062 208.324219 54.867188 213.925781 55.363281 C 216.332031 55.566406 217.335938 56.167969 217.335938 57.367188 C 217.335938 65.082031 213.226562 74.394531 207.519531 81.105469 C 214.234375 86.613281 218.742188 89.320312 221.445312 90.921875 C 224.652344 92.828125 229.152344 94.226562 232.160156 94.425781 C 233.058594 94.523438 233.558594 94.628906 233.558594 95.328125 C 233.558594 95.929688 232.859375 96.226562 230.65625 96.226562 L 222.84375 96.226562 C 211.425781 96.226562 207.414062 95.730469 198.804688 89.113281 C 195.5 92.117188 189.191406 97.625 175.46875 97.625 C 154.035156 97.625 147.621094 84.105469 147.621094 74.785156 M 194.898438 85.90625 C 182.179688 73.886719 175.871094 66.875 166.253906 55.652344 C 162.847656 58.152344 159.648438 62.769531 159.648438 70.777344 C 159.648438 83.300781 168.5625 91.210938 179.277344 91.210938 C 186.996094 91.210938 192.800781 87.90625 194.90625 85.90625 " clip-rule="nonzero"/></clipPath><clipPath id="49049fae12"><path d="M 0.464844 0 L 86.671875 0 L 86.671875 78.640625 L 0.464844 78.640625 Z M 0.464844 0 " clip-rule="nonzero"/></clipPath><clipPath id="378cc8b32c"><path d="M 0.613281 55.8125 C 0.613281 44.089844 10.628906 35.777344 16.644531 32.875 C 12.4375 27.265625 11.933594 23.058594 11.835938 18.550781 C 11.730469 10.632812 18.75 0.117188 36.179688 0.117188 C 41.082031 0.117188 45.589844 1.121094 48.300781 2.222656 C 50.003906 2.824219 50.003906 3.628906 50.003906 4.828125 C 50.003906 8.132812 49.203125 16.144531 48.902344 17.648438 C 48.703125 19.152344 48.300781 19.355469 47.699219 19.355469 C 47.09375 19.355469 47 18.953125 47 17.449219 C 47 14.84375 46.300781 11.636719 44.097656 9.03125 C 42.09375 6.628906 38.589844 4.523438 32.976562 4.523438 C 28.773438 4.523438 22.261719 7.425781 22.261719 15.9375 C 22.261719 25.351562 30.878906 33.367188 38.886719 42.28125 C 42.296875 46.1875 54.613281 57.304688 56.515625 59.011719 C 58.519531 56.203125 61.324219 49.691406 61.324219 43.582031 C 61.324219 42.082031 60.921875 40.28125 59.417969 38.976562 C 58.117188 37.78125 56.210938 37.578125 54.707031 37.472656 C 54.105469 37.472656 53.109375 37.273438 53.109375 36.671875 C 53.109375 35.867188 54.113281 35.664062 54.910156 35.664062 C 57.3125 35.664062 61.324219 35.867188 66.925781 36.363281 C 69.332031 36.566406 70.335938 37.167969 70.335938 38.367188 C 70.335938 46.082031 66.226562 55.394531 60.519531 62.105469 C 67.234375 67.613281 71.742188 70.320312 74.445312 71.921875 C 77.652344 73.828125 82.152344 75.226562 85.160156 75.425781 C 86.058594 75.523438 86.558594 75.628906 86.558594 76.328125 C 86.558594 76.929688 85.859375 77.226562 83.65625 77.226562 L 75.84375 77.226562 C 64.425781 77.226562 60.414062 76.730469 51.804688 70.113281 C 48.5 73.117188 42.191406 78.625 28.46875 78.625 C 7.035156 78.625 0.621094 65.105469 0.621094 55.785156 M 47.898438 66.90625 C 35.179688 54.886719 28.871094 47.875 19.253906 36.652344 C 15.847656 39.152344 12.648438 43.769531 12.648438 51.777344 C 12.648438 64.300781 21.5625 72.210938 32.277344 72.210938 C 39.996094 72.210938 45.800781 68.90625 47.90625 66.90625 " clip-rule="nonzero"/></clipPath><clipPath id="173c312d7e"><rect x="0" width="87" y="0" height="79"/></clipPath><clipPath id="1b91076e5e"><path d="M 4 20.507812 L 70.339844 20.507812 L 70.339844 96.59375 L 4 96.59375 Z M 4 20.507812 " clip-rule="nonzero"/></clipPath><clipPath id="ccd8d5bd3c"><path d="M 26.054688 67.199219 C 26.054688 80.019531 26.054688 86.933594 28.160156 88.734375 C 29.863281 90.238281 46.152344 90.9375 53.964844 90.9375 C 59.273438 90.9375 63.179688 90.839844 65.6875 88.132812 C 66.894531 86.828125 68.089844 84.023438 68.292969 82.117188 C 68.386719 81.21875 68.589844 80.613281 69.394531 80.613281 C 70.09375 80.613281 70.195312 81.113281 70.195312 82.320312 C 70.195312 83.421875 69.496094 90.9375 68.695312 93.839844 C 68.089844 96.042969 67.59375 96.539062 62.382812 96.539062 C 53.171875 96.539062 30.265625 95.9375 19.550781 95.9375 C 15.539062 95.9375 11.441406 96.242188 6.929688 96.242188 C 5.628906 96.242188 4.929688 95.9375 4.929688 95.238281 C 4.929688 94.738281 5.328125 94.433594 6.535156 94.433594 C 8.039062 94.433594 9.238281 94.234375 10.136719 94.03125 C 12.140625 93.628906 12.644531 91.429688 13.039062 88.527344 C 13.539062 84.320312 13.539062 76.402344 13.539062 67.191406 L 13.539062 49.570312 C 13.539062 34.34375 13.539062 31.535156 13.335938 28.328125 C 13.136719 24.921875 12.332031 23.320312 9.027344 22.621094 C 8.222656 22.421875 7.027344 22.324219 5.722656 22.324219 C 4.621094 22.324219 4.019531 22.121094 4.019531 21.421875 C 4.019531 20.722656 4.71875 20.523438 6.222656 20.523438 C 10.933594 20.523438 17.242188 20.820312 19.945312 20.820312 C 22.347656 20.820312 29.664062 20.523438 33.570312 20.523438 C 34.96875 20.523438 35.675781 20.722656 35.675781 21.421875 C 35.675781 22.121094 35.074219 22.324219 33.875 22.324219 C 32.773438 22.324219 31.175781 22.421875 29.96875 22.621094 C 27.261719 23.121094 26.464844 24.824219 26.261719 28.328125 C 26.0625 31.535156 26.0625 34.34375 26.0625 49.570312 Z M 26.054688 67.199219 " clip-rule="nonzero"/></clipPath><clipPath id="bb7ba2d2bd"><path d="M 0 0.507812 L 66.253906 0.507812 L 66.253906 76.59375 L 0 76.59375 Z M 0 0.507812 " clip-rule="nonzero"/></clipPath><clipPath id="bec74ed54d"><path d="M 22.054688 47.199219 C 22.054688 60.019531 22.054688 66.933594 24.160156 68.734375 C 25.863281 70.238281 42.152344 70.9375 49.964844 70.9375 C 55.273438 70.9375 59.179688 70.839844 61.6875 68.132812 C 62.894531 66.828125 64.089844 64.023438 64.292969 62.117188 C 64.386719 61.21875 64.589844 60.613281 65.394531 60.613281 C 66.09375 60.613281 66.195312 61.113281 66.195312 62.320312 C 66.195312 63.421875 65.496094 70.9375 64.695312 73.839844 C 64.089844 76.042969 63.59375 76.539062 58.382812 76.539062 C 49.171875 76.539062 26.265625 75.9375 15.550781 75.9375 C 11.539062 75.9375 7.441406 76.242188 2.929688 76.242188 C 1.628906 76.242188 0.929688 75.9375 0.929688 75.238281 C 0.929688 74.738281 1.328125 74.433594 2.535156 74.433594 C 4.039062 74.433594 5.238281 74.234375 6.136719 74.03125 C 8.140625 73.628906 8.644531 71.429688 9.039062 68.527344 C 9.539062 64.320312 9.539062 56.402344 9.539062 47.191406 L 9.539062 29.570312 C 9.539062 14.34375 9.539062 11.535156 9.335938 8.328125 C 9.136719 4.921875 8.332031 3.320312 5.027344 2.621094 C 4.222656 2.421875 3.027344 2.324219 1.722656 2.324219 C 0.621094 2.324219 0.0195312 2.121094 0.0195312 1.421875 C 0.0195312 0.722656 0.71875 0.523438 2.222656 0.523438 C 6.933594 0.523438 13.242188 0.820312 15.945312 0.820312 C 18.347656 0.820312 25.664062 0.523438 29.570312 0.523438 C 30.96875 0.523438 31.675781 0.722656 31.675781 1.421875 C 31.675781 2.121094 31.074219 2.324219 29.875 2.324219 C 28.773438 2.324219 27.175781 2.421875 25.96875 2.621094 C 23.261719 3.121094 22.464844 4.824219 22.261719 8.328125 C 22.0625 11.535156 22.0625 14.34375 22.0625 29.570312 Z M 22.054688 47.199219 " clip-rule="nonzero"/></clipPath><clipPath id="20dc265bd1"><rect x="0" width="67" y="0" height="77"/></clipPath><clipPath id="3bac77077c"><path d="M 49.371094 20.167969 L 163.332031 20.167969 L 163.332031 97.949219 L 49.371094 97.949219 Z M 49.371094 20.167969 " clip-rule="nonzero"/></clipPath><clipPath id="bfac32fe87"><path d="M 58.871094 30.332031 C 57.664062 26.625 56.570312 24.222656 55.164062 23.214844 C 54.0625 22.515625 52.0625 22.316406 51.160156 22.316406 C 50.164062 22.316406 49.5625 22.21875 49.5625 21.414062 C 49.5625 20.714844 50.363281 20.515625 51.761719 20.515625 C 56.972656 20.515625 62.480469 20.8125 63.378906 20.8125 C 64.28125 20.8125 68.6875 20.515625 74.496094 20.515625 C 75.90625 20.515625 76.605469 20.8125 76.605469 21.414062 C 76.605469 22.21875 75.800781 22.316406 74.804688 22.316406 C 74 22.316406 73.003906 22.316406 72.296875 22.71875 C 71.394531 23.121094 71.195312 23.820312 71.195312 24.921875 C 71.195312 26.222656 72.191406 29.632812 73.398438 34.132812 C 75.101562 40.742188 84.417969 71.097656 86.316406 77.101562 L 105.945312 24.511719 C 106.953125 21.703125 107.652344 20.902344 108.453125 20.902344 C 109.554688 20.902344 110.054688 22.40625 111.355469 25.613281 L 132.394531 76.394531 C 134.300781 69.28125 142.308594 42.839844 145.820312 31.117188 C 146.519531 28.8125 146.824219 26.714844 146.824219 25.304688 C 146.824219 23.707031 145.925781 22.300781 142.019531 22.300781 C 141.011719 22.300781 140.3125 22.003906 140.3125 21.398438 C 140.3125 20.699219 141.117188 20.5 142.621094 20.5 C 147.925781 20.5 152.140625 20.796875 153.039062 20.796875 C 153.738281 20.796875 158.046875 20.5 161.351562 20.5 C 162.453125 20.5 163.152344 20.699219 163.152344 21.304688 C 163.152344 22.003906 162.65625 22.308594 161.753906 22.308594 C 160.75 22.308594 159.351562 22.40625 158.25 22.804688 C 155.84375 23.707031 154.742188 27.71875 152.636719 33.425781 C 148.03125 46.046875 137.515625 77.898438 132.605469 92.921875 C 131.503906 96.429688 131.003906 97.632812 129.703125 97.632812 C 128.699219 97.632812 128.101562 96.429688 126.597656 92.722656 L 105.664062 42.238281 C 103.664062 47.648438 90.34375 83.105469 86.035156 92.320312 C 84.128906 96.429688 83.628906 97.625 82.425781 97.625 C 81.425781 97.625 81.027344 96.523438 80.125 93.917969 Z M 58.871094 30.332031 " clip-rule="nonzero"/></clipPath><clipPath id="2c00403dc0"><path d="M 0.394531 0.433594 L 114.289062 0.433594 L 114.289062 77.640625 L 0.394531 77.640625 Z M 0.394531 0.433594 " clip-rule="nonzero"/></clipPath><clipPath id="d0ad2f466a"><path d="M 9.871094 10.332031 C 8.664062 6.625 7.570312 4.222656 6.164062 3.214844 C 5.0625 2.515625 3.0625 2.316406 2.160156 2.316406 C 1.164062 2.316406 0.5625 2.21875 0.5625 1.414062 C 0.5625 0.714844 1.363281 0.515625 2.761719 0.515625 C 7.972656 0.515625 13.480469 0.8125 14.378906 0.8125 C 15.28125 0.8125 19.6875 0.515625 25.496094 0.515625 C 26.90625 0.515625 27.605469 0.8125 27.605469 1.414062 C 27.605469 2.21875 26.800781 2.316406 25.804688 2.316406 C 25 2.316406 24.003906 2.316406 23.296875 2.71875 C 22.394531 3.121094 22.195312 3.820312 22.195312 4.921875 C 22.195312 6.222656 23.191406 9.632812 24.398438 14.132812 C 26.101562 20.742188 35.417969 51.097656 37.316406 57.101562 L 56.945312 4.511719 C 57.953125 1.703125 58.652344 0.902344 59.453125 0.902344 C 60.554688 0.902344 61.054688 2.40625 62.355469 5.613281 L 83.394531 56.394531 C 85.300781 49.28125 93.308594 22.839844 96.820312 11.117188 C 97.519531 8.8125 97.824219 6.714844 97.824219 5.304688 C 97.824219 3.707031 96.925781 2.300781 93.019531 2.300781 C 92.011719 2.300781 91.3125 2.003906 91.3125 1.398438 C 91.3125 0.699219 92.117188 0.5 93.621094 0.5 C 98.925781 0.5 103.140625 0.796875 104.039062 0.796875 C 104.738281 0.796875 109.046875 0.5 112.351562 0.5 C 113.453125 0.5 114.152344 0.699219 114.152344 1.304688 C 114.152344 2.003906 113.65625 2.308594 112.753906 2.308594 C 111.75 2.308594 110.351562 2.40625 109.25 2.804688 C 106.84375 3.707031 105.742188 7.71875 103.636719 13.425781 C 99.03125 26.046875 88.515625 57.898438 83.605469 72.921875 C 82.503906 76.429688 82.003906 77.632812 80.703125 77.632812 C 79.699219 77.632812 79.101562 76.429688 77.597656 72.722656 L 56.664062 22.238281 C 54.664062 27.648438 41.34375 63.105469 37.035156 72.320312 C 35.128906 76.429688 34.628906 77.625 33.425781 77.625 C 32.425781 77.625 32.027344 76.523438 31.125 73.917969 Z M 9.871094 10.332031 " clip-rule="nonzero"/></clipPath><clipPath id="6b94fe4efa"><rect x="0" width="115" y="0" height="78"/></clipPath><clipPath id="55abadf4ae"><path d="M 201.546875 20.507812 L 279.664062 20.507812 L 279.664062 96.257812 L 201.546875 96.257812 Z M 201.546875 20.507812 " clip-rule="nonzero"/></clipPath><clipPath id="167d387edf"><path d="M 234.363281 70.300781 C 234.363281 64.890625 233.367188 62.6875 232.054688 59.785156 C 231.355469 58.1875 217.929688 36.144531 214.425781 30.933594 C 211.925781 27.226562 209.417969 24.726562 207.511719 23.617188 C 206.210938 22.917969 204.503906 22.316406 203.308594 22.316406 C 202.503906 22.316406 201.804688 22.113281 201.804688 21.414062 C 201.804688 20.8125 202.503906 20.515625 203.710938 20.515625 C 205.511719 20.515625 213.027344 20.8125 216.332031 20.8125 C 218.4375 20.8125 222.546875 20.515625 227.046875 20.515625 C 228.050781 20.515625 228.550781 20.8125 228.550781 21.414062 C 228.550781 22.019531 227.851562 22.113281 226.347656 22.515625 C 225.449219 22.71875 224.941406 23.523438 224.941406 24.316406 C 224.941406 25.113281 225.4375 26.320312 226.148438 27.726562 C 227.546875 30.734375 241.574219 54.875 243.171875 57.679688 C 244.179688 55.277344 256.800781 33.242188 258.199219 30.136719 C 259.203125 27.933594 259.597656 26.230469 259.597656 24.929688 C 259.597656 23.921875 259.195312 22.824219 257.492188 22.429688 C 256.589844 22.226562 255.691406 22.027344 255.691406 21.421875 C 255.691406 20.722656 256.1875 20.523438 257.394531 20.523438 C 260.699219 20.523438 263.90625 20.820312 266.808594 20.820312 C 269.011719 20.820312 275.621094 20.523438 277.523438 20.523438 C 278.625 20.523438 279.324219 20.722656 279.324219 21.328125 C 279.324219 22.027344 278.519531 22.332031 277.421875 22.332031 C 276.414062 22.332031 274.519531 22.734375 273.015625 23.53125 C 270.910156 24.535156 269.808594 25.734375 267.605469 28.441406 C 264.300781 32.445312 250.28125 55.984375 248.472656 60.292969 C 246.96875 63.902344 246.96875 67.003906 246.96875 70.308594 L 246.96875 78.515625 C 246.96875 80.117188 246.96875 84.328125 247.265625 88.535156 C 247.464844 91.4375 248.367188 93.636719 251.375 94.039062 C 252.773438 94.242188 254.984375 94.441406 256.382812 94.441406 C 257.484375 94.441406 257.980469 94.738281 257.980469 95.246094 C 257.980469 95.945312 257.175781 96.25 255.875 96.25 C 249.566406 96.25 243.253906 95.953125 240.554688 95.953125 C 238.042969 95.953125 231.742188 96.25 228.027344 96.25 C 226.628906 96.25 225.824219 96.050781 225.824219 95.246094 C 225.824219 94.746094 226.324219 94.441406 227.425781 94.441406 C 228.832031 94.441406 230.03125 94.242188 230.929688 94.039062 C 232.933594 93.636719 233.832031 91.4375 234.03125 88.535156 C 234.332031 84.328125 234.332031 80.117188 234.332031 78.515625 Z M 234.363281 70.300781 " clip-rule="nonzero"/></clipPath><clipPath id="a5b569529c"><path d="M 0.652344 0.507812 L 78.34375 0.507812 L 78.34375 76.257812 L 0.652344 76.257812 Z M 0.652344 0.507812 " clip-rule="nonzero"/></clipPath><clipPath id="47214a3371"><path d="M 33.363281 50.300781 C 33.363281 44.890625 32.367188 42.6875 31.054688 39.785156 C 30.355469 38.1875 16.929688 16.144531 13.425781 10.933594 C 10.925781 7.226562 8.417969 4.726562 6.511719 3.617188 C 5.210938 2.917969 3.503906 2.316406 2.308594 2.316406 C 1.503906 2.316406 0.804688 2.113281 0.804688 1.414062 C 0.804688 0.8125 1.503906 0.515625 2.710938 0.515625 C 4.511719 0.515625 12.027344 0.8125 15.332031 0.8125 C 17.4375 0.8125 21.546875 0.515625 26.046875 0.515625 C 27.050781 0.515625 27.550781 0.8125 27.550781 1.414062 C 27.550781 2.019531 26.851562 2.113281 25.347656 2.515625 C 24.449219 2.71875 23.941406 3.523438 23.941406 4.316406 C 23.941406 5.113281 24.4375 6.320312 25.148438 7.726562 C 26.546875 10.734375 40.574219 34.875 42.171875 37.679688 C 43.179688 35.277344 55.800781 13.242188 57.199219 10.136719 C 58.203125 7.933594 58.597656 6.230469 58.597656 4.929688 C 58.597656 3.921875 58.195312 2.824219 56.492188 2.429688 C 55.589844 2.226562 54.691406 2.027344 54.691406 1.421875 C 54.691406 0.722656 55.1875 0.523438 56.394531 0.523438 C 59.699219 0.523438 62.90625 0.820312 65.808594 0.820312 C 68.011719 0.820312 74.621094 0.523438 76.523438 0.523438 C 77.625 0.523438 78.324219 0.722656 78.324219 1.328125 C 78.324219 2.027344 77.519531 2.332031 76.421875 2.332031 C 75.414062 2.332031 73.519531 2.734375 72.015625 3.53125 C 69.910156 4.535156 68.808594 5.734375 66.605469 8.441406 C 63.300781 12.445312 49.28125 35.984375 47.472656 40.292969 C 45.96875 43.902344 45.96875 47.003906 45.96875 50.308594 L 45.96875 58.515625 C 45.96875 60.117188 45.96875 64.328125 46.265625 68.535156 C 46.464844 71.4375 47.367188 73.636719 50.375 74.039062 C 51.773438 74.242188 53.984375 74.441406 55.382812 74.441406 C 56.484375 74.441406 56.980469 74.738281 56.980469 75.246094 C 56.980469 75.945312 56.175781 76.25 54.875 76.25 C 48.566406 76.25 42.253906 75.953125 39.554688 75.953125 C 37.042969 75.953125 30.742188 76.25 27.027344 76.25 C 25.628906 76.25 24.824219 76.050781 24.824219 75.246094 C 24.824219 74.746094 25.324219 74.441406 26.425781 74.441406 C 27.832031 74.441406 29.03125 74.242188 29.929688 74.039062 C 31.933594 73.636719 32.832031 71.4375 33.03125 68.535156 C 33.332031 64.328125 33.332031 60.117188 33.332031 58.515625 Z M 33.363281 50.300781 " clip-rule="nonzero"/></clipPath><clipPath id="4aca0c0278"><rect x="0" width="79" y="0" height="77"/></clipPath><clipPath id="d4a6ba8043"><path d="M 308.570312 0.0507812 L 309.984375 0.0507812 L 309.984375 113.925781 L 308.570312 113.925781 Z M 308.570312 0.0507812 " clip-rule="nonzero"/></clipPath><clipPath id="d31a7f0cc3"><path d="M 0.570312 0.0507812 L 1.984375 0.0507812 L 1.984375 113.925781 L 0.570312 113.925781 Z M 0.570312 0.0507812 " clip-rule="nonzero"/></clipPath><clipPath id="a4ffd225ce"><rect x="0" width="2" y="0" height="114"/></clipPath><clipPath id="da2a9d1b14"><path d="M 333 12 L 531.828125 12 L 531.828125 103 L 333 103 Z M 333 12 " clip-rule="nonzero"/></clipPath><clipPath id="3e460498bc"><rect x="0" width="199" y="0" height="91"/></clipPath><clipPath id="24ee5d956d"><rect x="0" width="532" y="0" height="114"/></clipPath></defs><g clip-path="url(#6a1ff89ea7)"><g transform="matrix(1, 0, 0, 1, 0, 0.000000000000008327)"><g clip-path="url(#24ee5d956d)"><g clip-path="url(#173ae4f43b)"><g clip-path="url(#ef958e09e2)"><g transform="matrix(1, 0, 0, 1, 147, 19)"><g clip-path="url(#173c312d7e)"><g clip-path="url(#49049fae12)"><g clip-path="url(#378cc8b32c)"><rect x="-344.106" width="935.712" fill="#020304" y="-60.495999" height="196.991997" fill-opacity="1"/></g></g></g></g></g></g><g clip-path="url(#1b91076e5e)"><g clip-path="url(#ccd8d5bd3c)"><g transform="matrix(1, 0, 0, 1, 4, 20)"><g clip-path="url(#20dc265bd1)"><g clip-path="url(#bb7ba2d2bd)"><g clip-path="url(#bec74ed54d)"><rect x="-201.106" width="935.712" fill="#020304" y="-61.495999" height="196.991997" fill-opacity="1"/></g></g></g></g></g></g><g clip-path="url(#3bac77077c)"><g clip-path="url(#bfac32fe87)"><g transform="matrix(1, 0, 0, 1, 49, 20)"><g clip-path="url(#6b94fe4efa)"><g clip-path="url(#2c00403dc0)"><g clip-path="url(#d0ad2f466a)"><rect x="-246.106" width="935.712" fill="#020304" y="-61.495999" height="196.991997" fill-opacity="1"/></g></g></g></g></g></g><g clip-path="url(#55abadf4ae)"><g clip-path="url(#167d387edf)"><g transform="matrix(1, 0, 0, 1, 201, 20)"><g clip-path="url(#4aca0c0278)"><g clip-path="url(#a5b569529c)"><g clip-path="url(#47214a3371)"><rect x="-398.106" width="935.712" fill="#020304" y="-61.495999" height="196.991997" fill-opacity="1"/></g></g></g></g></g></g><g clip-path="url(#d4a6ba8043)"><g transform="matrix(1, 0, 0, 1, 308, 0.000000000000008327)"><g clip-path="url(#a4ffd225ce)"><g clip-path="url(#d31a7f0cc3)"><path fill="#231f20" d="M 0.570312 0.0507812 L 1.988281 0.0507812 L 1.988281 113.929688 L 0.570312 113.929688 Z M 0.570312 0.0507812 " fill-opacity="1" fill-rule="nonzero"/></g></g></g></g><g clip-path="url(#da2a9d1b14)"><g transform="matrix(1, 0, 0, 1, 333, 12)"><g clip-path="url(#3e460498bc)"><g fill="#020304" fill-opacity="1"><g transform="translate(1.451908, 26.292296)"><g><path d="M 2.734375 -18.1875 L 5.328125 -18.1875 L 5.328125 -2.265625 L 15.171875 -2.265625 L 15.171875 0 L 2.734375 0 Z M 2.734375 -18.1875 "/></g></g></g><g fill="#020304" fill-opacity="1"><g transform="translate(19.874146, 26.292296)"><g><path d="M 14.3125 -4.546875 L 4.65625 -4.546875 L 2.65625 0 L -0.03125 0 L 8.21875 -18.1875 L 10.78125 -18.1875 L 19.046875 0 L 16.3125 0 Z M 13.40625 -6.625 L 9.484375 -15.53125 L 5.5625 -6.625 Z M 13.40625 -6.625 "/></g></g></g><g fill="#020304" fill-opacity="1"><g transform="translate(41.881967, 26.292296)"><g><path d="M 16.3125 -2.265625 L 16.3125 0 L 1.125 0 L 1.125 -1.765625 L 12.546875 -15.921875 L 1.296875 -15.921875 L 1.296875 -18.1875 L 15.984375 -18.1875 L 15.984375 -16.421875 L 4.59375 -2.265625 Z M 16.3125 -2.265625 "/></g></g></g><g fill="#020304" fill-opacity="1"><g transform="translate(61.941103, 26.292296)"><g><path d="M 16.3125 -2.265625 L 16.3125 0 L 1.125 0 L 1.125 -1.765625 L 12.546875 -15.921875 L 1.296875 -15.921875 L 1.296875 -18.1875 L 15.984375 -18.1875 L 15.984375 -16.421875 L 4.59375 -2.265625 Z M 16.3125 -2.265625 "/></g></g></g><g fill="#020304" fill-opacity="1"><g transform="translate(82.000238, 26.292296)"><g><path d="M 14.3125 -4.546875 L 4.65625 -4.546875 L 2.65625 0 L -0.03125 0 L 8.21875 -18.1875 L 10.78125 -18.1875 L 19.046875 0 L 16.3125 0 Z M 13.40625 -6.625 L 9.484375 -15.53125 L 5.5625 -6.625 Z M 13.40625 -6.625 "/></g></g></g><g fill="#020304" fill-opacity="1"><g transform="translate(104.008059, 26.292296)"><g><path d="M 14.890625 0 L 10.96875 -5.59375 C 10.476562 -5.550781 10.097656 -5.53125 9.828125 -5.53125 L 5.328125 -5.53125 L 5.328125 0 L 2.734375 0 L 2.734375 -18.1875 L 9.828125 -18.1875 C 12.179688 -18.1875 14.03125 -17.625 15.375 -16.5 C 16.726562 -15.375 17.40625 -13.820312 17.40625 -11.84375 C 17.40625 -10.445312 17.054688 -9.253906 16.359375 -8.265625 C 15.671875 -7.273438 14.6875 -6.554688 13.40625 -6.109375 L 17.71875 0 Z M 9.75 -7.75 C 11.394531 -7.75 12.648438 -8.101562 13.515625 -8.8125 C 14.378906 -9.519531 14.8125 -10.53125 14.8125 -11.84375 C 14.8125 -13.164062 14.378906 -14.175781 13.515625 -14.875 C 12.648438 -15.570312 11.394531 -15.921875 9.75 -15.921875 L 5.328125 -15.921875 L 5.328125 -7.75 Z M 9.75 -7.75 "/></g></g></g><g fill="#020304" fill-opacity="1"><g transform="translate(125.885966, 26.292296)"><g><path d="M 2.734375 -18.1875 L 5.328125 -18.1875 L 5.328125 0 L 2.734375 0 Z M 2.734375 -18.1875 "/></g></g></g><g fill="#020304" fill-opacity="1"><g transform="translate(136.929184, 26.292296)"><g><path d="M 18.375 -18.1875 L 18.375 0 L 16.234375 0 L 5.328125 -13.5625 L 5.328125 0 L 2.734375 0 L 2.734375 -18.1875 L 4.859375 -18.1875 L 15.765625 -4.625 L 15.765625 -18.1875 Z M 18.375 -18.1875 "/></g></g></g><g fill="#020304" fill-opacity="1"><g transform="translate(161.015593, 26.292296)"><g><path d="M 2.734375 -18.1875 L 5.328125 -18.1875 L 5.328125 0 L 2.734375 0 Z M 2.734375 -18.1875 "/></g></g></g><g fill="#020304" fill-opacity="1"><g transform="translate(1.451908, 55.232938)"><g><path d="M 28.421875 -18.1875 L 22.34375 0 L 19.625 0 L 14.65625 -14.53125 L 9.6875 0 L 6.90625 0 L 0.828125 -18.1875 L 3.515625 -18.1875 L 8.421875 -3.40625 L 13.53125 -18.1875 L 15.921875 -18.1875 L 20.9375 -3.328125 L 25.953125 -18.1875 Z M 28.421875 -18.1875 "/></g></g></g><g fill="#020304" fill-opacity="1"><g transform="translate(33.696825, 55.232938)"><g><path d="M 18.375 -18.1875 L 18.375 0 L 15.765625 0 L 15.765625 -8.109375 L 5.328125 -8.109375 L 5.328125 0 L 2.734375 0 L 2.734375 -18.1875 L 5.328125 -18.1875 L 5.328125 -10.375 L 15.765625 -10.375 L 15.765625 -18.1875 Z M 18.375 -18.1875 "/></g></g></g><g fill="#020304" fill-opacity="1"><g transform="translate(57.783244, 55.232938)"><g><path d="M 2.734375 -18.1875 L 5.328125 -18.1875 L 5.328125 0 L 2.734375 0 Z M 2.734375 -18.1875 "/></g></g></g><g fill="#020304" fill-opacity="1"><g transform="translate(68.826461, 55.232938)"><g><path d="M 6.34375 -15.921875 L 0.109375 -15.921875 L 0.109375 -18.1875 L 15.15625 -18.1875 L 15.15625 -15.921875 L 8.90625 -15.921875 L 8.90625 0 L 6.34375 0 Z M 6.34375 -15.921875 "/></g></g></g><g fill="#020304" fill-opacity="1"><g transform="translate(87.066825, 55.232938)"><g><path d="M 15.921875 -2.265625 L 15.921875 0 L 2.734375 0 L 2.734375 -18.1875 L 15.5625 -18.1875 L 15.5625 -15.921875 L 5.328125 -15.921875 L 5.328125 -10.34375 L 14.453125 -10.34375 L 14.453125 -8.140625 L 5.328125 -8.140625 L 5.328125 -2.265625 Z M 15.921875 -2.265625 "/></g></g></g><g fill="#020304" fill-opacity="1"><g transform="translate(107.463738, 55.232938)"><g><path d="M 5.328125 -15.921875 L 5.328125 -9.59375 L 14.453125 -9.59375 L 14.453125 -7.359375 L 5.328125 -7.359375 L 5.328125 0 L 2.734375 0 L 2.734375 -18.1875 L 15.5625 -18.1875 L 15.5625 -15.921875 Z M 5.328125 -15.921875 "/></g></g></g><g fill="#020304" fill-opacity="1"><g transform="translate(126.95126, 55.232938)"><g><path d="M 10.9375 0.203125 C 9.101562 0.203125 7.445312 -0.195312 5.96875 -1 C 4.5 -1.800781 3.34375 -2.910156 2.5 -4.328125 C 1.664062 -5.753906 1.25 -7.34375 1.25 -9.09375 C 1.25 -10.84375 1.664062 -12.425781 2.5 -13.84375 C 3.34375 -15.269531 4.5 -16.382812 5.96875 -17.1875 C 7.445312 -17.988281 9.101562 -18.390625 10.9375 -18.390625 C 12.757812 -18.390625 14.40625 -17.988281 15.875 -17.1875 C 17.34375 -16.382812 18.492188 -15.273438 19.328125 -13.859375 C 20.160156 -12.453125 20.578125 -10.863281 20.578125 -9.09375 C 20.578125 -7.320312 20.160156 -5.726562 19.328125 -4.3125 C 18.492188 -2.90625 17.34375 -1.800781 15.875 -1 C 14.40625 -0.195312 12.757812 0.203125 10.9375 0.203125 Z M 10.9375 -2.109375 C 12.269531 -2.109375 13.46875 -2.410156 14.53125 -3.015625 C 15.601562 -3.617188 16.445312 -4.453125 17.0625 -5.515625 C 17.675781 -6.585938 17.984375 -7.78125 17.984375 -9.09375 C 17.984375 -10.40625 17.675781 -11.59375 17.0625 -12.65625 C 16.445312 -13.726562 15.601562 -14.566406 14.53125 -15.171875 C 13.46875 -15.773438 12.269531 -16.078125 10.9375 -16.078125 C 9.601562 -16.078125 8.394531 -15.773438 7.3125 -15.171875 C 6.226562 -14.566406 5.378906 -13.726562 4.765625 -12.65625 C 4.148438 -11.59375 3.84375 -10.40625 3.84375 -9.09375 C 3.84375 -7.78125 4.148438 -6.585938 4.765625 -5.515625 C 5.378906 -4.453125 6.226562 -3.617188 7.3125 -3.015625 C 8.394531 -2.410156 9.601562 -2.109375 10.9375 -2.109375 Z M 10.9375 -2.109375 "/></g></g></g><g fill="#020304" fill-opacity="1"><g transform="translate(151.765195, 55.232938)"><g><path d="M 14.890625 0 L 10.96875 -5.59375 C 10.476562 -5.550781 10.097656 -5.53125 9.828125 -5.53125 L 5.328125 -5.53125 L 5.328125 0 L 2.734375 0 L 2.734375 -18.1875 L 9.828125 -18.1875 C 12.179688 -18.1875 14.03125 -17.625 15.375 -16.5 C 16.726562 -15.375 17.40625 -13.820312 17.40625 -11.84375 C 17.40625 -10.445312 17.054688 -9.253906 16.359375 -8.265625 C 15.671875 -7.273438 14.6875 -6.554688 13.40625 -6.109375 L 17.71875 0 Z M 9.75 -7.75 C 11.394531 -7.75 12.648438 -8.101562 13.515625 -8.8125 C 14.378906 -9.519531 14.8125 -10.53125 14.8125 -11.84375 C 14.8125 -13.164062 14.378906 -14.175781 13.515625 -14.875 C 12.648438 -15.570312 11.394531 -15.921875 9.75 -15.921875 L 5.328125 -15.921875 L 5.328125 -7.75 Z M 9.75 -7.75 "/></g></g></g><g fill="#020304" fill-opacity="1"><g transform="translate(173.643103, 55.232938)"><g><path d="M 2.734375 -18.1875 L 10.390625 -18.1875 C 12.316406 -18.1875 14.023438 -17.804688 15.515625 -17.046875 C 17.003906 -16.285156 18.160156 -15.210938 18.984375 -13.828125 C 19.804688 -12.453125 20.21875 -10.875 20.21875 -9.09375 C 20.21875 -7.3125 19.804688 -5.726562 18.984375 -4.34375 C 18.160156 -2.96875 17.003906 -1.898438 15.515625 -1.140625 C 14.023438 -0.378906 12.316406 0 10.390625 0 L 2.734375 0 Z M 10.234375 -2.265625 C 11.710938 -2.265625 13.007812 -2.546875 14.125 -3.109375 C 15.238281 -3.679688 16.097656 -4.484375 16.703125 -5.515625 C 17.316406 -6.546875 17.625 -7.738281 17.625 -9.09375 C 17.625 -10.445312 17.316406 -11.640625 16.703125 -12.671875 C 16.097656 -13.703125 15.238281 -14.5 14.125 -15.0625 C 13.007812 -15.632812 11.710938 -15.921875 10.234375 -15.921875 L 5.328125 -15.921875 L 5.328125 -2.265625 Z M 10.234375 -2.265625 "/></g></g></g><g fill="#020304" fill-opacity="1"><g transform="translate(1.451908, 84.17358)"><g><path d="M 9.6875 -6.28125 L 9.6875 0 L 7.125 0 L 7.125 -6.34375 L -0.109375 -18.1875 L 2.671875 -18.1875 L 8.5 -8.59375 L 14.34375 -18.1875 L 16.921875 -18.1875 Z M 9.6875 -6.28125 "/></g></g></g><g fill="#020304" fill-opacity="1"><g transform="translate(21.251218, 84.17358)"><g><path d="M 10.9375 0.203125 C 9.101562 0.203125 7.445312 -0.195312 5.96875 -1 C 4.5 -1.800781 3.34375 -2.910156 2.5 -4.328125 C 1.664062 -5.753906 1.25 -7.34375 1.25 -9.09375 C 1.25 -10.84375 1.664062 -12.425781 2.5 -13.84375 C 3.34375 -15.269531 4.5 -16.382812 5.96875 -17.1875 C 7.445312 -17.988281 9.101562 -18.390625 10.9375 -18.390625 C 12.757812 -18.390625 14.40625 -17.988281 15.875 -17.1875 C 17.34375 -16.382812 18.492188 -15.273438 19.328125 -13.859375 C 20.160156 -12.453125 20.578125 -10.863281 20.578125 -9.09375 C 20.578125 -7.320312 20.160156 -5.726562 19.328125 -4.3125 C 18.492188 -2.90625 17.34375 -1.800781 15.875 -1 C 14.40625 -0.195312 12.757812 0.203125 10.9375 0.203125 Z M 10.9375 -2.109375 C 12.269531 -2.109375 13.46875 -2.410156 14.53125 -3.015625 C 15.601562 -3.617188 16.445312 -4.453125 17.0625 -5.515625 C 17.675781 -6.585938 17.984375 -7.78125 17.984375 -9.09375 C 17.984375 -10.40625 17.675781 -11.59375 17.0625 -12.65625 C 16.445312 -13.726562 15.601562 -14.566406 14.53125 -15.171875 C 13.46875 -15.773438 12.269531 -16.078125 10.9375 -16.078125 C 9.601562 -16.078125 8.394531 -15.773438 7.3125 -15.171875 C 6.226562 -14.566406 5.378906 -13.726562 4.765625 -12.65625 C 4.148438 -11.59375 3.84375 -10.40625 3.84375 -9.09375 C 3.84375 -7.78125 4.148438 -6.585938 4.765625 -5.515625 C 5.378906 -4.453125 6.226562 -3.617188 7.3125 -3.015625 C 8.394531 -2.410156 9.601562 -2.109375 10.9375 -2.109375 Z M 10.9375 -2.109375 "/></g></g></g><g fill="#020304" fill-opacity="1"><g transform="translate(46.065153, 84.17358)"><g><path d="M 10.265625 0.203125 C 7.835938 0.203125 5.945312 -0.488281 4.59375 -1.875 C 3.25 -3.257812 2.578125 -5.25 2.578125 -7.84375 L 2.578125 -18.1875 L 5.171875 -18.1875 L 5.171875 -7.953125 C 5.171875 -4.054688 6.878906 -2.109375 10.296875 -2.109375 C 11.953125 -2.109375 13.222656 -2.585938 14.109375 -3.546875 C 14.992188 -4.503906 15.4375 -5.972656 15.4375 -7.953125 L 15.4375 -18.1875 L 17.953125 -18.1875 L 17.953125 -7.84375 C 17.953125 -5.226562 17.273438 -3.234375 15.921875 -1.859375 C 14.578125 -0.484375 12.691406 0.203125 10.265625 0.203125 Z M 10.265625 0.203125 "/></g></g></g><g fill="#020304" fill-opacity="1"><g transform="translate(69.60594, 84.17358)"><g><path d="M 18.375 -18.1875 L 18.375 0 L 16.234375 0 L 5.328125 -13.5625 L 5.328125 0 L 2.734375 0 L 2.734375 -18.1875 L 4.859375 -18.1875 L 15.765625 -4.625 L 15.765625 -18.1875 Z M 18.375 -18.1875 "/></g></g></g><g fill="#020304" fill-opacity="1"><g transform="translate(93.692358, 84.17358)"><g><path d="M 15.328125 -9.203125 L 17.828125 -9.203125 L 17.828125 -2.109375 C 16.921875 -1.359375 15.867188 -0.785156 14.671875 -0.390625 C 13.484375 0.00390625 12.238281 0.203125 10.9375 0.203125 C 9.101562 0.203125 7.445312 -0.195312 5.96875 -1 C 4.5 -1.800781 3.34375 -2.90625 2.5 -4.3125 C 1.664062 -5.726562 1.25 -7.320312 1.25 -9.09375 C 1.25 -10.863281 1.664062 -12.457031 2.5 -13.875 C 3.34375 -15.289062 4.503906 -16.394531 5.984375 -17.1875 C 7.472656 -17.988281 9.140625 -18.390625 10.984375 -18.390625 C 12.441406 -18.390625 13.765625 -18.148438 14.953125 -17.671875 C 16.140625 -17.203125 17.148438 -16.507812 17.984375 -15.59375 L 16.375 -13.984375 C 14.914062 -15.378906 13.15625 -16.078125 11.09375 -16.078125 C 9.707031 -16.078125 8.460938 -15.78125 7.359375 -15.1875 C 6.265625 -14.59375 5.40625 -13.757812 4.78125 -12.6875 C 4.15625 -11.625 3.84375 -10.425781 3.84375 -9.09375 C 3.84375 -7.78125 4.15625 -6.585938 4.78125 -5.515625 C 5.40625 -4.453125 6.265625 -3.617188 7.359375 -3.015625 C 8.460938 -2.410156 9.695312 -2.109375 11.0625 -2.109375 C 12.695312 -2.109375 14.117188 -2.5 15.328125 -3.28125 Z M 15.328125 -9.203125 "/></g></g></g><g fill="#020304" fill-opacity="1"><g transform="translate(116.739482, 84.17358)"><g/></g></g><g fill="#020304" fill-opacity="1"><g transform="translate(126.717415, 84.17358)"><g><path d="M 2.734375 -18.1875 L 5.328125 -18.1875 L 5.328125 -2.265625 L 15.171875 -2.265625 L 15.171875 0 L 2.734375 0 Z M 2.734375 -18.1875 "/></g></g></g><g fill="#020304" fill-opacity="1"><g transform="translate(145.139653, 84.17358)"><g><path d="M 2.734375 -18.1875 L 5.328125 -18.1875 L 5.328125 -2.265625 L 15.171875 -2.265625 L 15.171875 0 L 2.734375 0 Z M 2.734375 -18.1875 "/></g></g></g><g fill="#020304" fill-opacity="1"><g transform="translate(163.561891, 84.17358)"><g><path d="M 9.828125 -18.1875 C 12.179688 -18.1875 14.03125 -17.625 15.375 -16.5 C 16.726562 -15.375 17.40625 -13.820312 17.40625 -11.84375 C 17.40625 -9.875 16.726562 -8.328125 15.375 -7.203125 C 14.03125 -6.078125 12.179688 -5.515625 9.828125 -5.515625 L 5.328125 -5.515625 L 5.328125 0 L 2.734375 0 L 2.734375 -18.1875 Z M 9.75 -7.765625 C 11.394531 -7.765625 12.648438 -8.113281 13.515625 -8.8125 C 14.378906 -9.519531 14.8125 -10.53125 14.8125 -11.84375 C 14.8125 -13.164062 14.378906 -14.175781 13.515625 -14.875 C 12.648438 -15.570312 11.394531 -15.921875 9.75 -15.921875 L 5.328125 -15.921875 L 5.328125 -7.765625 Z M 9.75 -7.765625 "/></g></g></g><g fill="#020304" fill-opacity="1"><g transform="translate(185.317313, 84.17358)"><g/></g></g></g></g></g></g></g></g></svg>