<svg width="152" height="48" viewBox="0 0 152 48" fill="none" xmlns="http://www.w3.org/2000/svg">
<g clip-path="url(#clip0_111_126)">
<path d="M59.224 24.9915C59.224 25.604 59.1187 26.1613 58.908 26.6583C58.6973 27.1553 58.3913 27.587 57.9951 27.9435C57.5988 28.2999 57.1223 28.5761 56.5555 28.7668C55.9937 28.9576 55.3617 29.053 54.6594 29.053C54.0575 29.053 53.4656 28.9928 52.8687 28.8672C52.2768 28.7417 51.7401 28.566 51.2686 28.3301C50.7921 28.0941 50.4059 27.813 50.1049 27.4866C49.8039 27.1553 49.6535 26.7888 49.6535 26.3771V24.0276H50.0898C50.3356 25.5086 50.8222 26.5679 51.5395 27.2105C52.2568 27.8531 53.2349 28.1795 54.4738 28.1795C54.85 28.1795 55.2112 28.1343 55.5523 28.0389C55.8934 27.9435 56.1943 27.8029 56.4552 27.6121C56.716 27.4214 56.9267 27.1854 57.0872 26.9093C57.2477 26.6332 57.3279 26.3068 57.3279 25.9404C57.3279 25.2977 57.1273 24.7455 56.726 24.2937C56.3247 23.8418 55.7178 23.38 54.9152 22.908L52.2166 21.3065C51.2786 20.7493 50.6165 20.187 50.2303 19.6147C49.8441 19.0423 49.6484 18.3495 49.6484 17.5262C49.6484 16.9538 49.7488 16.4418 49.9544 15.9899C50.1601 15.5381 50.446 15.1465 50.8222 14.8152C51.1934 14.4838 51.6398 14.2328 52.1615 14.0571C52.6781 13.8814 53.26 13.796 53.907 13.796C54.4488 13.796 55.0005 13.8563 55.5623 13.9717C56.1241 14.0872 56.6357 14.2629 57.0872 14.4888C57.5386 14.7148 57.9148 14.9959 58.2057 15.3222C58.4967 15.6536 58.6471 16.0201 58.6471 16.4317V18.7813H58.2057C57.96 17.3003 57.4885 16.246 56.7862 15.6184C56.089 14.9909 55.1209 14.6746 53.887 14.6746C53.5659 14.6746 53.2549 14.7248 52.949 14.8302C52.643 14.9306 52.3771 15.0812 52.1414 15.272C51.9107 15.4628 51.72 15.6988 51.5746 15.9749C51.4291 16.251 51.3539 16.5623 51.3539 16.8986C51.3539 17.235 51.404 17.5061 51.5094 17.7571C51.6097 18.0081 51.7652 18.2391 51.9708 18.46C52.1765 18.6809 52.4323 18.8967 52.7383 19.1076C53.0443 19.3185 53.3954 19.5444 53.7917 19.7753L56.4903 21.3768C56.9568 21.6529 57.3631 21.924 57.7092 22.1801C58.0553 22.4361 58.3362 22.7072 58.5518 22.9934C58.7726 23.2795 58.9381 23.5808 59.0434 23.9071C59.1538 24.2284 59.2089 24.5949 59.2089 25.0066L59.224 24.9915Z" fill="#00458C"/>
<path d="M69.8929 23.8469H63.2417C63.2417 24.4494 63.3069 25.0066 63.4373 25.5187C63.5677 26.0308 63.7634 26.4726 64.0192 26.8491C64.275 27.2206 64.586 27.5118 64.9521 27.7176C65.3183 27.9235 65.7346 28.0239 66.2011 28.0239C66.9184 28.0239 67.5153 27.8682 67.9918 27.562C68.4684 27.2558 68.8947 26.824 69.2759 26.2667L69.7174 26.5981C69.2208 27.4315 68.6439 28.0289 67.9918 28.3803C67.3398 28.7318 66.5974 28.9075 65.7647 28.9075C64.9873 28.9075 64.3151 28.7669 63.7483 28.4807C63.1815 28.1946 62.7 27.813 62.3087 27.326C61.9225 26.8441 61.6315 26.2768 61.4409 25.6241C61.2503 24.9715 61.155 24.2736 61.155 23.5256C61.155 22.7776 61.2554 22.0797 61.451 21.4271C61.6466 20.7744 61.9375 20.2071 62.3187 19.7252C62.7 19.2432 63.1614 18.8566 63.7032 18.5705C64.2449 18.2843 64.8568 18.1437 65.549 18.1437C67.0438 18.1437 68.1473 18.5604 68.8646 19.3938C69.5819 20.2272 69.9381 21.4221 69.9381 22.9734L69.8929 23.8519V23.8469ZM67.8514 22.9683C67.8514 21.6932 67.6608 20.7142 67.2796 20.0364C66.8984 19.3537 66.3215 19.0173 65.544 19.0173C65.208 19.0173 64.902 19.1177 64.6211 19.3135C64.3452 19.5093 64.0994 19.7854 63.8988 20.1368C63.6931 20.4883 63.5326 20.905 63.4172 21.3869C63.3019 21.8689 63.2417 22.396 63.2417 22.9683H67.8514Z" fill="#00458C"/>
<path d="M72.7873 20.9953C72.7873 20.3377 72.6971 19.8055 72.5115 19.4039C72.3259 19.0022 71.9095 18.8014 71.2474 18.8014H70.811V18.3646H72.7873C73.3441 18.3646 73.7655 18.4399 74.0514 18.5956C74.3373 18.7512 74.5379 18.9671 74.6533 19.2432H74.7636C75.0395 18.9671 75.4207 18.711 75.9073 18.4851C76.3888 18.2592 76.9607 18.1437 77.6178 18.1437C78.0842 18.1437 78.5407 18.199 78.9871 18.3094C79.4335 18.4199 79.8298 18.6257 80.1809 18.9219C80.5321 19.2231 80.8129 19.6298 81.0236 20.1419C81.2343 20.6539 81.3396 21.3066 81.3396 22.0948V28.6866H79.3633V22.0948C79.3633 21.5526 79.2931 21.0907 79.1527 20.7092C79.0122 20.3276 78.8316 20.0214 78.6059 19.7854C78.3802 19.5494 78.1244 19.3838 77.8385 19.2783C77.5525 19.1779 77.2566 19.1227 76.9506 19.1227C76.5142 19.1227 76.1079 19.2382 75.7317 19.4741C75.3606 19.7101 75.0345 19.9812 74.7536 20.2874V28.6815H72.7773V20.9953H72.7873Z" fill="#00458C"/>
<path d="M86.7016 28.6815H84.7253V20.9953C84.7253 20.3376 84.635 19.8054 84.4494 19.4038C84.2639 19.0022 83.8475 18.8014 83.1854 18.8014H82.749V18.3646H84.7253C85.1065 18.3646 85.4226 18.3997 85.6784 18.465C85.9342 18.5303 86.1398 18.6608 86.2903 18.8616C86.4458 19.0574 86.5512 19.3285 86.6063 19.6749C86.6665 20.0213 86.6916 20.4631 86.6916 21.0053V28.6915L86.7016 28.6815ZM86.5712 16.0502C86.5712 16.3564 86.4809 16.5974 86.2953 16.7731C86.1097 16.9488 85.869 17.0392 85.558 17.0392C85.2219 17.0392 84.931 16.8986 84.6902 16.6225C84.4494 16.3464 84.3291 16.015 84.3291 15.6335C84.3291 15.3272 84.4194 15.0863 84.6049 14.9106C84.7855 14.7348 85.0313 14.6445 85.3423 14.6445C85.6784 14.6445 85.9693 14.785 86.2101 15.0612C86.4508 15.3373 86.5712 15.6686 86.5712 16.0502Z" fill="#00458C"/>
<path d="M89.2046 23.5205C89.2046 22.7725 89.3099 22.0747 89.5206 21.422C89.7313 20.7694 90.0473 20.2021 90.4636 19.7201C90.8799 19.2381 91.3866 18.8516 91.9784 18.5654C92.5703 18.2792 93.2575 18.1387 94.03 18.1387C94.8025 18.1387 95.4696 18.2792 96.0715 18.5654C96.6734 18.8516 97.18 19.2381 97.5964 19.7201C98.0127 20.2021 98.3287 20.7694 98.5394 21.422C98.75 22.0747 98.8554 22.7725 98.8554 23.5205C98.8554 24.2686 98.75 24.9664 98.5394 25.6191C98.3287 26.2717 98.0127 26.839 97.5964 27.321C97.18 27.8029 96.6734 28.1895 96.0715 28.4757C95.4696 28.7618 94.7924 28.9024 94.03 28.9024C93.2676 28.9024 92.5703 28.7618 91.9784 28.4757C91.3866 28.1895 90.8799 27.808 90.4636 27.321C90.0473 26.834 89.7313 26.2717 89.5206 25.6191C89.3099 24.9664 89.2046 24.2686 89.2046 23.5205ZM96.7788 23.5205C96.7788 22.893 96.7136 22.3006 96.5831 21.7534C96.4527 21.2061 96.2671 20.7292 96.0213 20.3225C95.7806 19.9209 95.4896 19.5996 95.1536 19.3687C94.8175 19.1327 94.4463 19.0172 94.035 19.0172C93.6237 19.0172 93.2525 19.1327 92.9164 19.3687C92.5804 19.6046 92.2894 19.9209 92.0487 20.3225C91.8079 20.7242 91.6223 21.2011 91.4869 21.7534C91.3565 22.3006 91.2912 22.893 91.2912 23.5205C91.2912 24.1481 91.3565 24.7405 91.4869 25.2877C91.6173 25.8349 91.8079 26.3119 92.0487 26.7135C92.2894 27.1151 92.5804 27.4364 92.9164 27.6674C93.2525 27.9033 93.6237 28.0188 94.035 28.0188C94.4463 28.0188 94.8175 27.9033 95.1536 27.6674C95.4896 27.4314 95.7806 27.1151 96.0213 26.7135C96.2621 26.3119 96.4477 25.8349 96.5831 25.2877C96.7136 24.7405 96.7788 24.1481 96.7788 23.5205Z" fill="#00458C"/>
<path d="M101.609 20.9953C101.609 20.3377 101.519 19.8055 101.333 19.4039C101.153 19.0022 100.731 18.8014 100.069 18.8014H99.8486V18.3646H101.604C102.161 18.3646 102.582 18.445 102.868 18.6056C103.154 18.7663 103.355 19.0173 103.47 19.3537H103.581C103.801 19.0775 104.127 18.8064 104.569 18.5403C105.005 18.2743 105.557 18.1437 106.214 18.1437C106.435 18.1437 106.665 18.1688 106.916 18.219C107.167 18.2692 107.368 18.3546 107.533 18.4701C107.694 18.5855 107.834 18.7261 107.949 18.8868C108.065 19.0474 108.185 19.2382 108.301 19.4591L107.423 20.1168C107.262 19.8959 107.022 19.7302 106.711 19.6248C106.395 19.5143 106.048 19.4591 105.667 19.4591C105.226 19.4591 104.825 19.5595 104.458 19.7553C104.092 19.9511 103.801 20.2222 103.581 20.5585V28.6866H101.604V21.0003L101.609 20.9953Z" fill="#00458C"/>
<path d="M121.493 18.7964C121.217 17.3605 120.7 16.3063 119.943 15.6335C119.19 14.9608 118.207 14.6244 116.993 14.6244C116.276 14.6244 115.599 14.7449 114.962 14.9859C114.325 15.2269 113.768 15.6235 113.282 16.1707C112.8 16.7179 112.419 17.4409 112.138 18.3345C111.862 19.2281 111.722 20.3326 111.722 21.653C111.722 22.4713 111.822 23.2796 112.018 24.0678C112.213 24.861 112.524 25.5639 112.95 26.1763C113.377 26.7939 113.919 27.2909 114.586 27.6724C115.253 28.054 116.05 28.2448 116.988 28.2448C118.087 28.2448 119.03 27.9787 119.817 27.4565C120.61 26.9294 121.312 26.1663 121.924 25.1723L122.361 25.5036C122.009 26.1914 121.618 26.7688 121.187 27.2256C120.755 27.6875 120.289 28.059 119.792 28.3452C119.296 28.6313 118.759 28.8321 118.177 28.9476C117.6 29.0631 116.983 29.1233 116.321 29.1233C115.283 29.1233 114.34 28.9275 113.502 28.541C112.66 28.1544 111.942 27.6222 111.35 26.9495C110.758 26.2768 110.307 25.4835 109.991 24.5799C109.675 23.6712 109.52 22.6972 109.52 21.658C109.52 20.5585 109.7 19.5293 110.056 18.5705C110.417 17.6116 110.904 16.7731 111.516 16.0552C112.128 15.3373 112.85 14.775 113.678 14.3634C114.505 13.9517 115.383 13.7458 116.321 13.7458C117.535 13.7458 118.583 13.9165 119.461 14.263C120.339 14.6094 120.976 15.021 121.372 15.503C121.648 15.8394 121.809 16.3063 121.854 16.9087C121.899 17.5111 121.919 18.1387 121.919 18.7964H121.483H121.493Z" fill="#00458C"/>
<path d="M131.148 28.6815L130.381 27.6925H130.271C130.05 27.9686 129.694 28.2397 129.197 28.5058C128.701 28.7668 128.033 28.9024 127.201 28.9024C126.895 28.9024 126.559 28.8522 126.193 28.7618C125.826 28.6664 125.48 28.5008 125.159 28.2698C124.838 28.0339 124.567 27.7226 124.347 27.326C124.126 26.9294 124.016 26.4324 124.016 25.8299C124.016 25.2275 124.171 24.7305 124.477 24.3338C124.783 23.9372 125.194 23.626 125.706 23.39C126.218 23.154 126.81 22.9934 127.487 22.898C128.159 22.8026 128.871 22.7574 129.613 22.7574H130.271C130.271 21.9943 130.21 21.3718 130.095 20.8798C129.98 20.3878 129.819 20.0063 129.613 19.7352C129.408 19.4641 129.162 19.2783 128.876 19.1729C128.59 19.0725 128.289 19.0172 127.963 19.0172C127.351 19.0172 126.835 19.1478 126.418 19.4139C126.002 19.6799 125.711 20.1669 125.551 20.8848H124.562C124.562 20.5033 124.582 20.1468 124.628 19.8205C124.673 19.4892 124.833 19.1879 125.109 18.9068C125.24 18.7763 125.425 18.6558 125.666 18.5554C125.907 18.455 126.173 18.3746 126.468 18.3144C126.759 18.2541 127.07 18.214 127.401 18.1839C127.732 18.1537 128.064 18.1387 128.4 18.1387C128.896 18.1387 129.378 18.1939 129.839 18.3043C130.301 18.4148 130.712 18.6357 131.068 18.962C131.424 19.2934 131.71 19.7603 131.926 20.3677C132.137 20.9752 132.242 21.7684 132.242 22.7524V28.6815H131.143H131.148ZM130.271 23.631H129.613C128.515 23.631 127.657 23.8318 127.035 24.2334C126.413 24.6351 126.102 25.1672 126.102 25.8249C126.102 26.1763 126.162 26.4826 126.278 26.7486C126.393 27.0097 126.549 27.2306 126.739 27.4063C126.93 27.582 127.151 27.7126 127.396 27.7929C127.647 27.8732 127.908 27.9134 128.189 27.9134C128.731 27.9134 129.157 27.7778 129.473 27.5067C129.789 27.2356 130.055 26.9344 130.276 26.593V23.626L130.271 23.631Z" fill="#00458C"/>
<path d="M135.472 20.9953C135.472 20.3377 135.382 19.8055 135.196 19.4039C135.011 19.0022 134.594 18.8014 133.937 18.8014H133.717V18.3646H135.472C136.029 18.3646 136.45 18.445 136.736 18.6056C137.022 18.7663 137.223 19.0173 137.338 19.3537H137.448C137.669 19.0775 137.995 18.8064 138.437 18.5403C138.873 18.2743 139.425 18.1437 140.082 18.1437C140.303 18.1437 140.533 18.1688 140.784 18.219C141.035 18.2692 141.236 18.3546 141.401 18.4701C141.562 18.5855 141.702 18.7261 141.817 18.8868C141.933 19.0474 142.053 19.2382 142.169 19.4591L141.291 20.1168C141.13 19.8959 140.889 19.7302 140.578 19.6248C140.262 19.5143 139.916 19.4591 139.535 19.4591C139.099 19.4591 138.692 19.5595 138.326 19.7553C137.96 19.9511 137.669 20.2222 137.448 20.5585V28.6866H135.472V21.0003V20.9953Z" fill="#00458C"/>
<path d="M151.955 23.8469H145.304C145.304 24.4494 145.369 25.0066 145.499 25.5187C145.63 26.0308 145.825 26.4726 146.081 26.8491C146.337 27.2206 146.648 27.5118 147.014 27.7176C147.38 27.9235 147.797 28.0239 148.263 28.0239C148.98 28.0239 149.577 27.8682 150.054 27.562C150.53 27.2558 150.957 26.824 151.338 26.2667L151.774 26.5981C151.278 27.4315 150.701 28.0289 150.049 28.3803C149.397 28.7318 148.654 28.9075 147.822 28.9075C147.044 28.9075 146.372 28.7669 145.8 28.4807C145.228 28.1946 144.752 27.813 144.366 27.326C143.979 26.8441 143.688 26.2768 143.498 25.6241C143.307 24.9715 143.212 24.2736 143.212 23.5256C143.212 22.7776 143.312 22.0797 143.508 21.4271C143.703 20.7744 143.994 20.2071 144.376 19.7252C144.757 19.2432 145.218 18.8566 145.76 18.5705C146.302 18.2843 146.914 18.1437 147.606 18.1437C149.101 18.1437 150.204 18.5604 150.922 19.3938C151.639 20.2272 151.995 21.4221 151.995 22.9734L151.95 23.8519L151.955 23.8469ZM149.918 22.9683C149.918 21.6932 149.728 20.7142 149.346 20.0364C148.965 19.3537 148.388 19.0173 147.611 19.0173C147.275 19.0173 146.969 19.1177 146.688 19.3135C146.412 19.5093 146.166 19.7854 145.961 20.1368C145.755 20.4883 145.595 20.905 145.479 21.3869C145.364 21.8689 145.304 22.396 145.304 22.9683H149.913H149.918Z" fill="#00458C"/>
<path d="M70.9916 39.0286C70.8261 39.5908 70.3194 40.0377 69.6874 40.1632C69.572 40.1883 69.4517 40.1933 69.3363 40.1933C69.1005 40.1933 68.8698 40.1531 68.6491 40.0678C68.2829 39.9172 67.9619 39.6762 67.686 39.3248L68.4033 38.7625C68.5688 38.9834 68.7645 39.139 68.9751 39.2143C69.1457 39.2846 69.3363 39.2997 69.5068 39.2595C69.8028 39.2043 70.0436 39.0085 70.1138 38.7725C70.194 38.5064 70.0135 38.2705 69.8479 38.1148C69.5921 37.8739 69.1708 37.4572 69.1357 37.427L68.4234 36.7543C68.2027 36.5435 68.0572 36.3075 67.977 36.0565C67.8967 35.8155 67.8917 35.5544 67.9619 35.3235C68.0321 35.0725 68.1826 34.8566 68.3933 34.6759C68.5889 34.5102 68.8297 34.3947 69.0905 34.3495C69.3714 34.2893 69.6674 34.3094 69.9483 34.4148C70.2442 34.5303 70.51 34.7261 70.7358 35.0022L70.0235 35.5745C69.7276 35.2131 69.4216 35.2131 69.256 35.2482C69.0504 35.2884 68.8798 35.4189 68.8347 35.5846C68.8046 35.695 68.8096 35.8757 69.0554 36.1067L70.0235 37.0355C70.1639 37.176 70.3345 37.3417 70.4599 37.4572C70.7107 37.6831 70.8812 37.9442 70.9665 38.2153C71.0518 38.4813 71.0618 38.7625 70.9815 39.0286H70.9916Z" fill="#489CEA"/>
<path d="M76.9205 34.3897H77.8736C78.641 34.3897 79.0824 34.701 79.3182 34.962C79.6292 35.3084 79.7847 35.7703 79.7847 36.3075C79.7847 36.8447 79.6292 37.3166 79.3182 37.653C79.0824 37.919 78.641 38.2303 77.8736 38.2303H77.061V40.1933H76.1531V34.3897H76.9205ZM78.9771 36.3025C78.9771 36.0766 78.9319 35.7452 78.7213 35.5143C78.5357 35.3084 78.2548 35.203 77.8786 35.203H77.066V37.407H77.8786C78.2548 37.407 78.5357 37.3066 78.7213 37.1007C78.9319 36.8648 78.9771 36.5384 78.9771 36.3025Z" fill="#489CEA"/>
<path d="M85.6734 36.7493H87.7901V37.5726H85.6734V39.3699H88.2466V40.1933H84.7705V34.3897H88.2466V35.203H85.6734V36.7493Z" fill="#489CEA"/>
<path d="M97.5262 39.7163C97.3757 39.8117 97.2202 39.8971 97.0597 39.9674C96.6986 40.118 96.3174 40.1933 95.9261 40.1933C95.5349 40.1933 95.1536 40.113 94.8025 39.9674C94.4514 39.8168 94.1454 39.6059 93.8796 39.3398C93.6137 39.0737 93.4031 38.7675 93.2526 38.4161C93.1021 38.0646 93.0269 37.6831 93.0269 37.2915C93.0269 36.8999 93.1071 36.5184 93.2526 36.1569C93.4031 35.8105 93.6137 35.4992 93.8796 35.2331C94.1454 34.9671 94.4514 34.7562 94.8025 34.6156C95.1536 34.46 95.5349 34.3897 95.9261 34.3897C96.3174 34.3897 96.6986 34.46 97.0597 34.6156C97.0998 34.6307 97.145 34.6558 97.1851 34.6709V35.7402C96.834 35.449 96.3976 35.2934 95.9261 35.2934C95.3944 35.2934 94.8928 35.4992 94.5216 35.8808C94.1454 36.2573 93.9348 36.7543 93.9348 37.2865C93.9348 37.8186 94.1454 38.3207 94.5216 38.6922C94.8978 39.0637 95.3944 39.2796 95.9261 39.2796C96.4578 39.2796 96.9594 39.0687 97.3306 38.6922C97.4008 38.6219 97.461 38.5516 97.5262 38.4713V39.7063V39.7163Z" fill="#489CEA"/>
<path d="M106.399 35.203H104.804V40.1933H103.891V35.203H102.296V34.3897H106.399V35.203Z" fill="#489CEA"/>
<path d="M115.519 40.1933H114.495L113.036 38.2303H112.373V40.1933H111.466V34.3897H113.186C113.954 34.3897 114.4 34.701 114.631 34.9671C114.937 35.3034 115.097 35.7703 115.097 36.3125C115.097 36.8547 114.932 37.3116 114.631 37.6479C114.49 37.8036 114.27 37.9843 113.959 38.0948L115.519 40.1883V40.1933ZM113.181 37.417C113.557 37.417 113.838 37.3066 114.019 37.1057C114.239 36.8698 114.275 36.5435 114.275 36.3175C114.275 36.0916 114.234 35.7553 114.019 35.5193C113.838 35.3135 113.557 35.2131 113.181 35.2131H112.368V37.417H113.181Z" fill="#489CEA"/>
<path d="M120.986 39.7314C120.76 39.5607 120.59 39.3499 120.469 39.1039C120.339 38.8378 120.274 38.5416 120.274 38.2203V34.3897H121.182V38.2203C121.182 38.5667 121.307 38.8328 121.543 39.0085C121.763 39.1792 122.079 39.2846 122.426 39.2846C122.772 39.2846 123.083 39.1842 123.308 39.0085C123.544 38.8277 123.659 38.5617 123.659 38.2203V34.3897H124.572V38.2203C124.572 38.5416 124.502 38.8378 124.377 39.1039C124.251 39.3448 124.081 39.5557 123.86 39.7314C123.479 40.0276 122.967 40.1933 122.421 40.1933C121.874 40.1933 121.367 40.0276 120.981 39.7314H120.986Z" fill="#489CEA"/>
<path d="M134.499 40.1933V37.1108L132.688 39.8168L130.868 37.1108V40.1933H129.96V34.1237L132.688 38.1902L135.417 34.1237V40.1933H134.504H134.499Z" fill="#489CEA"/>
<path d="M21.0823 45.0129C10.9299 42.6884 3.27044 33.7772 3.27044 23.2143C3.27044 10.8993 13.6937 1.45089 26.319 1.99812C33.0555 2.2893 38.7637 5.0706 42.7915 9.16222C38.4025 3.58456 31.6008 0 23.9564 0C10.7242 0 0 10.7336 0 23.9774C0 37.2212 10.7242 47.9548 23.9564 47.9548C30.6628 47.9548 22.7626 45.3944 21.0773 45.0078L21.0823 45.0129Z" fill="url(#paint0_radial_111_126)"/>
<path d="M32.3132 39.8971C32.1777 39.9874 32.0573 40.0778 31.937 40.1631H31.9319C31.7112 40.3288 31.5357 40.4593 31.3651 40.5196C31.2297 40.5698 30.1914 41.117 29.4841 41.599C29.3537 41.6843 29.2434 41.7697 29.1531 41.8399L29.4691 41.8701C29.6747 41.8901 29.8503 41.9102 29.9857 41.9253C30.0961 41.9404 30.1864 41.9454 30.2616 41.9454C30.387 41.9454 30.4823 41.9303 30.6228 41.9052C30.7883 41.8751 31.0341 41.8299 31.4655 41.7998C32.1727 41.3329 33.191 40.8359 33.4969 40.7104C33.7528 40.6049 34.0637 40.3388 34.3196 40.128H34.3246C34.47 40.0025 34.6155 39.8719 34.7359 39.8017C34.8262 39.7464 34.9566 39.6561 35.1372 39.5356C35.4381 39.3297 35.8143 39.0787 36.1454 38.888C36.3059 38.7926 36.4714 38.7022 36.6319 38.6118L36.6821 38.5817C36.963 38.4261 37.2539 38.2604 37.3894 38.17C37.4195 38.1449 37.4495 38.1249 37.4796 38.0997C37.6151 37.9943 37.7957 37.8538 38.4227 37.5324C38.3675 37.4672 38.3023 37.4069 38.227 37.3517L38.212 37.3417C38.0816 37.2513 37.891 37.1459 37.5649 37.1459C37.289 37.1459 36.9429 37.2212 36.5467 37.3718C35.6137 37.7282 35.077 38.0596 34.7961 38.2755C34.7509 38.3106 34.6958 38.3458 34.6306 38.3909C34.5001 38.4763 34.3547 38.5616 34.1741 38.6671L34.144 38.6871C34.0036 38.7675 33.8481 38.8578 33.7026 38.9532C33.4719 39.0988 33.1659 39.3097 32.8198 39.5506L32.7897 39.5707C32.6191 39.6862 32.4586 39.7966 32.3182 39.892L32.3132 39.8971Z" fill="url(#paint1_radial_111_126)"/>
<path d="M28.5161 41.7747C28.5813 41.7195 28.6415 41.6643 28.7117 41.599C29.2935 41.0518 30.9839 40.1582 31.1996 40.0778C31.305 40.0377 31.4604 39.9222 31.646 39.7917L31.6561 39.7816C31.7614 39.7013 31.8968 39.6059 32.0473 39.5055C32.1928 39.4051 32.3633 39.2896 32.5389 39.1692C32.8248 38.9683 33.186 38.7223 33.4368 38.5617C33.4919 38.5265 33.5471 38.4914 33.6023 38.4563C33.4317 38.4312 33.2662 38.4362 33.1107 38.4663C33.0104 38.4864 32.9101 38.5065 32.8148 38.5265C32.3031 38.627 31.8216 38.7223 31.5808 38.8981C31.2197 39.1541 30.7983 39.3147 30.4322 39.4403C30.1111 39.5507 29.4089 39.9122 29.138 40.1381C28.8421 40.3791 28.5963 40.5397 28.1298 40.7958C28.0446 40.846 27.9392 40.8962 27.8238 40.9564C27.5781 41.0869 27.247 41.2576 26.946 41.4534C27.1015 41.4936 27.232 41.5287 27.3624 41.5689C27.6082 41.6442 27.9793 41.7145 28.511 41.7798L28.5161 41.7747Z" fill="url(#paint2_radial_111_126)"/>
<path d="M41.7432 41.9103C41.4774 41.7245 41.1614 41.6191 40.8053 41.5889C40.6748 41.5789 40.5494 41.5739 40.4291 41.5739C39.6917 41.5739 39.3255 41.7546 39.1098 41.86C39.0446 41.8952 38.9945 41.9153 38.9443 41.9354C38.8891 41.9554 38.8039 41.9705 38.5982 42.0056C38.1668 42.0809 36.8476 42.4173 36.0852 42.7135C35.8595 42.8039 35.6638 42.8892 35.4983 42.9846L35.4682 42.9997L35.2475 43.0599C35.2475 43.0599 35.2776 43.1051 35.2876 43.1252C35.3278 43.1905 35.3579 43.2607 35.3829 43.326C35.4281 43.4515 35.4532 43.577 35.4532 43.7076C35.4331 44.812 34.139 45.058 33.5872 45.1584C33.2211 45.2287 32.7395 45.2538 32.3182 45.2789H32.3081C31.8968 45.304 31.4655 45.3291 31.1645 45.3844C31.014 45.4145 30.8334 45.4295 30.6177 45.4295C30.061 45.4295 29.4089 45.3342 29.0176 45.2739C28.9524 45.2639 28.8922 45.2538 28.8471 45.2488C28.7016 45.2287 28.3304 45.2087 27.9091 45.2087C27.4577 45.2087 26.6501 45.2338 26.2739 45.3844L26.2588 45.3944C26.2588 45.3944 26.2338 45.3944 26.2187 45.3994L26.1134 45.4245C26.1134 45.4245 26.0682 45.4346 26.0431 45.4446C25.8927 45.4848 25.7071 45.53 25.5365 45.5701C25.4011 45.6053 25.2657 45.6304 25.1453 45.6555C25.1001 45.6655 25.055 45.6705 25.0199 45.6806L24.5684 45.7207L24.7641 45.6454C24.7641 45.6454 24.8544 45.6103 24.9848 45.5601C25.0199 45.545 25.055 45.5249 25.1001 45.4998C25.2055 45.4446 25.3259 45.3894 25.4412 45.3191C25.6318 45.2137 25.8074 45.1133 25.8927 45.0631L26.0532 44.9677C26.0532 44.9677 26.0833 44.9476 26.0983 44.9426C26.1184 44.9325 26.1385 44.9225 26.1585 44.9175C26.1585 44.9175 26.1685 44.9175 26.1736 44.9175C26.6401 44.7568 27.4727 44.7317 27.9292 44.7317C28.3856 44.7317 28.7618 44.7518 28.9223 44.7769C28.9675 44.7819 29.0277 44.792 29.0979 44.802C29.454 44.8572 30.1111 44.9526 30.6328 44.9526C30.8134 44.9526 30.9639 44.9426 31.0842 44.9175C31.4153 44.8522 31.8366 44.8271 32.2831 44.802H32.2981C32.7295 44.7769 33.1759 44.7518 33.507 44.6865C34.2343 44.551 34.9767 44.3251 34.9867 43.6925C34.9867 43.6523 34.9817 43.6071 34.9666 43.5519C34.9516 43.4917 34.9265 43.4314 34.8914 43.3712C34.8563 43.3109 34.8111 43.2507 34.761 43.1955L34.7259 43.1603C34.7259 43.1603 34.7058 43.1403 34.7008 43.1302C34.6657 43.0951 34.6205 43.0549 34.5653 43.0097C34.5001 42.9545 34.4249 42.9043 34.3497 42.8541C34.139 42.7185 33.9183 42.6131 33.7828 42.5629C33.6926 42.5378 32.89 42.3119 32.0824 42.2667C31.957 42.2617 31.8567 42.2567 31.7564 42.2617C31.7163 42.2617 31.6761 42.2617 31.636 42.2667C31.6159 42.2667 31.6009 42.2667 31.5808 42.2667C31.4554 42.2767 31.3451 42.2868 31.2447 42.2968C31.1244 42.3069 31.014 42.3219 30.9037 42.342C30.8435 42.352 30.7933 42.3621 30.7431 42.3721H30.7281C30.5726 42.4023 30.4522 42.4274 30.2817 42.4274C30.1814 42.4274 30.071 42.4173 29.9406 42.4023C29.7901 42.3822 29.5945 42.3621 29.3738 42.342C29.1982 42.3269 28.9625 42.3018 28.7167 42.2717C28.6214 42.2617 28.5211 42.2516 28.4258 42.2366C28.4157 42.2366 28.4057 42.2366 28.4007 42.2366C28.3254 42.2265 28.2502 42.2165 28.18 42.2065C27.9843 42.1814 27.8088 42.1512 27.6483 42.1161C27.4827 42.0809 27.3523 42.0508 27.252 42.0207C26.9711 41.9354 26.6952 41.8701 26.4294 41.8098C26.2588 41.7697 26.1184 41.7345 25.983 41.7044C25.7271 41.6392 25.5265 41.5789 25.3359 41.5036L25.3158 41.4936C24.5634 41.2074 22.4166 40.4493 21.2027 40.4343C16.7334 40.374 16.3372 42.2667 12.4448 42.2667C8.55234 42.2667 5.04615 38.6821 3.22534 36.0113C5.56782 39.9623 8.96867 43.2658 13.147 45.3693C16.6331 47.1264 20.5757 47.995 24.1822 47.995C24.7189 47.995 25.2506 47.9699 25.7472 47.9247C25.8676 47.9146 25.988 47.9046 26.1033 47.8946C27.3874 47.7791 28.6063 47.6737 29.6246 47.2118C31.2197 46.4838 33.9434 45.6906 34.4751 45.54H34.4851C34.4851 45.54 35.4431 45.2488 36.1002 44.9074C36.968 44.4556 38.9945 43.6423 39.5513 43.4816C39.6466 43.4515 39.777 43.4013 39.9224 43.3461C40.1833 43.2407 40.5043 43.1101 40.8554 43.0348C41.4072 42.9143 42.0944 42.7637 42.2298 42.7085C42.3101 42.6784 42.305 42.5679 42.3 42.5278C42.2699 42.4575 42.1094 42.1512 41.7633 41.9103H41.7432Z" fill="url(#paint3_radial_111_126)"/>
<path d="M36.9076 38.9984L36.8876 39.0084C36.7221 39.0988 36.5515 39.1992 36.381 39.2946C36.065 39.4753 35.6988 39.7264 35.4028 39.9272C35.2423 40.0376 35.0868 40.138 34.9865 40.2033C34.9213 40.2435 34.826 40.3188 34.7457 40.3891L34.6354 40.4844C34.3595 40.7204 34.0134 41.0116 33.6874 41.1471C33.4667 41.2375 33.0253 41.4534 32.5387 41.7195C32.4835 41.7496 32.4284 41.7847 32.3682 41.8149C32.4534 41.8249 32.5387 41.8349 32.634 41.845C33.3413 41.9404 33.9181 42.1111 33.9231 42.1161C33.9382 42.1211 34.2592 42.2416 34.6003 42.4625C34.7056 42.5277 34.7959 42.598 34.8812 42.6683L35.2925 42.5579C35.453 42.4675 35.6386 42.3822 35.8392 42.3018C36.3158 41.8651 36.8826 41.353 37.0481 41.2174C37.3039 40.9965 38.2369 40.1732 38.3573 40.0577C38.4375 39.9824 38.578 39.9071 38.8689 39.7565C39.1448 39.6109 39.526 39.4151 39.8069 39.2143C39.9323 39.1239 40.1179 39.0135 40.2784 38.9181C40.6044 38.7223 41.2816 38.3106 41.3067 38.1098C41.3067 38.1098 41.3067 38.1048 41.2916 38.0897L41.2615 38.0496C41.2365 38.0094 41.106 37.8236 40.8803 37.663C40.4489 37.3618 39.9373 37.3467 39.3705 37.6128C39.2401 37.673 39.1297 37.7283 39.0194 37.7785C38.1115 38.2152 37.9159 38.3709 37.7704 38.4863C37.7353 38.5165 37.7002 38.5416 37.6601 38.5667C37.5748 38.6269 37.4393 38.7072 37.2437 38.8227C37.1434 38.8829 37.033 38.9432 36.9127 39.0084L36.9076 38.9984Z" fill="url(#paint4_radial_111_126)"/>
<path d="M14.5063 26.1663C14.4962 26.106 14.3859 26.101 14.3608 26.096C14.2856 26.0759 14.2655 26.0659 14.1953 26.0307C14.1903 26.0558 14.1301 26.0508 14.1251 26.0659C14.11 26.1864 14.2304 26.1713 14.2805 26.2165C14.3207 26.2516 14.3658 26.2968 14.4059 26.337C14.4411 26.337 14.5213 26.2667 14.5063 26.1663ZM15.2135 18.224C15.6951 18.1035 15.2486 16.6577 14.4661 17.1597C13.6535 17.6818 14.9928 18.3847 15.2135 18.224ZM15.0029 20.3075C14.9176 20.4983 15.2537 20.4129 15.374 20.4481C15.5847 20.5183 15.6499 20.7342 15.8305 20.8246C15.9007 20.8597 16.1916 20.8798 16.2619 20.7593C16.3471 20.6087 16.1666 20.5435 16.1214 20.4832C16.0211 20.3527 15.3239 19.5795 15.0079 20.3075H15.0029ZM16.7083 12.1242C17.0293 11.582 16.2569 11.4716 16.1716 11.6322C15.9509 11.8331 16.4023 12.6464 16.7083 12.1242ZM14.6718 15.2771H14.7019C14.5815 15.252 14.2505 15.3323 14.3006 15.5231C14.3257 15.6285 14.737 15.6988 14.8323 15.7239C15.0982 15.7992 15.3841 15.9046 15.6299 15.995C15.8205 15.6887 15.3239 15.6737 15.1232 15.5532C14.9878 15.4729 14.8122 15.3674 14.6718 15.272V15.2771ZM13.0767 26.824C13.1269 26.9244 13.5382 26.9093 13.6385 26.9143C13.9144 26.9344 13.9997 26.9495 14.2605 26.9896C14.2755 26.9495 14.4962 26.9445 14.5013 26.9143C14.5313 26.7085 14.0849 26.7587 13.8893 26.6934C13.7388 26.6432 13.5482 26.5729 13.3877 26.5127H13.4178C13.2974 26.5027 12.9864 26.6533 13.0767 26.829V26.824ZM16.4675 19.4992C16.4675 19.439 16.4274 19.3235 16.3873 19.2683C16.3321 19.2683 16.2368 19.2281 16.2167 19.2231L16.2518 19.1628C15.9659 19.3335 16.2217 19.6247 16.4675 19.4942V19.4992ZM13.9395 22.7574L14.0047 22.642C13.2422 22.6269 13.7388 23.3147 14.2454 23.3649C14.5715 23.4001 15.3389 23.4151 15.5947 23.1741C15.2787 22.8026 14.416 22.3357 13.9395 22.7524V22.7574ZM12.214 24.1079C12.1086 24.0778 11.9732 24.0427 11.8578 24.0025C11.7876 24.0326 11.6823 24.1883 11.7926 24.3338C11.8578 24.4192 12.0886 24.3539 12.1538 24.3489C12.3193 24.3338 12.5099 24.3338 12.6754 24.3389C12.6202 24.0125 12.3694 24.1531 12.214 24.1079ZM13.2573 17.1748C13.0667 17.2702 13.3827 17.8324 13.6636 17.5513C13.9595 17.2601 13.3375 17.0844 13.2573 17.1748ZM13.0817 19.3285L13.0265 19.2884C12.8309 19.2783 11.5217 18.5654 11.4616 18.9018C11.7826 19.0775 12.1588 19.2432 12.3995 19.459C12.5801 19.6247 12.7557 19.941 12.9964 19.8908C13.0366 19.8808 13.3275 19.6548 13.3275 19.6046C13.3275 19.4741 13.1218 19.439 13.0817 19.3235V19.3285ZM13.804 13.5802C13.6535 14.3433 14.8825 14.9758 15.1634 14.1424C15.354 13.5802 15.0831 13.2739 14.5013 13.2237C13.9194 13.1735 13.804 13.5802 13.804 13.5802ZM28.6915 27.1654C27.2168 25.9052 25.7822 23.4402 24.7941 21.6028C23.7056 19.5695 21.3381 16.1807 19.437 13.5952C18.1328 11.818 17.2801 12.2397 16.8538 13.4095C17.0243 13.6153 17.2049 13.8262 17.3604 14.0019C17.4858 14.1424 17.7115 14.283 17.9021 14.4286C18.0175 14.0922 18.2633 13.9667 18.5492 14.1826C18.5492 14.1826 18.7348 14.283 19.8884 16.2108C21.0421 18.1387 22.3513 20.4681 22.3513 20.4681C22.1406 20.0916 20.6258 18.2541 19.6828 17.3455C18.7348 16.4368 17.862 15.7088 17.8319 14.9809C17.8319 14.9809 17.8319 14.9758 17.8319 14.9708C17.571 14.77 17.3002 14.5642 17.0243 14.3684C16.8186 14.4135 16.6732 14.4537 16.5829 14.5993C16.5628 14.7549 16.5478 14.9206 16.5428 15.0813C16.5729 15.1616 16.613 15.2369 16.628 15.3323C16.6631 15.5482 16.5277 15.6586 16.5277 15.8393C16.5277 15.8494 16.5277 15.8544 16.5277 15.8644C16.5277 15.8895 16.5327 15.9146 16.5428 15.9448C16.623 16.2008 17.0394 16.5121 17.2902 16.5924C17.1497 16.994 16.7885 16.5773 16.5879 16.6326C16.613 16.8133 16.6431 16.989 16.6882 17.1597C16.7183 17.1999 16.7434 17.235 16.7585 17.2651C16.7785 17.3103 16.7785 17.3555 16.7835 17.4057C17.5811 18.1387 18.4739 19.1729 17.2249 18.5253C17.1898 18.5403 17.1397 18.5253 17.0694 18.4801C17.1096 18.6257 17.1447 18.7712 17.1698 18.9219C17.2049 18.9821 17.24 19.0424 17.2701 19.1026C17.4406 19.4189 17.3704 19.454 17.3303 19.8055C17.3052 20.0264 17.4055 20.0816 17.4557 20.2723C17.4858 20.3778 17.5109 20.6489 17.4808 20.7493C17.4406 20.8748 17.4005 20.8397 17.3403 20.9451C17.1948 21.1861 17.0694 21.1911 16.8839 21.3216C16.8738 21.3417 16.8688 21.3568 16.8588 21.3768C16.6882 21.7483 16.5127 22.1199 16.3371 22.4914C16.3371 22.5114 16.3321 22.5365 16.3271 22.5566C16.5779 22.4361 17.0093 22.8328 17.0544 22.7976C17.0544 23.1039 16.292 23.3247 16.0863 23.5657C15.986 23.6812 15.8556 23.7113 15.7553 23.7816C15.7101 23.887 15.665 23.9925 15.6248 24.1029C15.6499 24.2786 15.7653 24.4543 15.69 24.6552C15.5797 24.9664 15.3791 25.1371 15.2286 25.3279C15.1583 25.609 15.1132 25.8902 15.0931 26.1713C15.1684 26.4374 15.1583 26.3671 15.3038 26.6181C15.4091 26.8039 15.9158 27.2959 16.1515 27.326C16.1365 27.5168 15.0931 27.09 15.2737 27.7176C15.8104 29.4597 16.5929 29.9416 16.5929 29.9416C16.5929 29.9416 14.0899 30.8804 14.2755 31.9297C14.2755 31.9297 12.224 33.0191 13.0617 34.3847C13.0617 34.3847 12.3143 35.4892 12.7406 36.2523C13.167 37.0154 15.5446 36.3878 15.5446 36.3878C15.5446 36.3878 15.9559 37.1459 16.6932 37.1459C21.5638 37.1208 27.5328 33.0091 31.3049 28.7217C31.3049 28.7217 30.5424 28.7418 28.7066 27.1704L28.6915 27.1654ZM18.8953 17.8023C19.7028 18.2893 21.1826 19.8557 21.4284 20.3226C21.4284 20.3226 21.0622 20.0715 20.1242 19.6599C19.1059 19.213 18.4188 19.3536 18.1379 18.7261C17.857 18.0935 18.0877 17.3204 18.8953 17.8023ZM17.5058 30.8001C17.7416 30.4688 18.2081 30.4889 18.7849 30.6696C19.7229 30.9608 20.9318 31.6385 23.2642 31.7239C22.0604 31.9498 20.0389 32.0502 18.2833 31.5431C17.7767 31.3674 17.2199 31.1967 17.5058 30.7951V30.8001ZM17.4456 29.1333C17.255 29.1333 17.1146 28.9978 17.1347 28.8371C17.1497 28.6765 17.3152 28.551 17.5109 28.551C17.7015 28.551 17.8419 28.6865 17.8269 28.8472C17.8068 29.0078 17.6413 29.1333 17.4507 29.1333H17.4456ZM18.6645 25.102C19.2213 24.6803 20.3549 24.7254 21.0421 25.8149C22.4867 28.0991 24.7189 29.1685 24.7189 29.1685C22.6523 29.1434 20.2797 28.0289 19.6176 27.6825C18.0125 26.839 17.9874 25.614 18.6645 25.102ZM19.5574 23.2545C19.9035 23.2545 20.1844 23.4954 20.1844 23.7816C20.1844 24.0678 19.8935 24.2987 19.5474 24.2937C19.1962 24.2937 18.9204 24.0527 18.9254 23.7665C18.9304 23.4804 19.2113 23.2494 19.5624 23.2545H19.5574ZM19.2213 22.0044C19.2213 21.7935 19.4169 21.6228 19.6677 21.6279C19.9185 21.6279 20.1292 21.8086 20.1392 22.0194C20.1493 22.2303 19.9436 22.401 19.6928 22.396C19.437 22.396 19.2263 22.2152 19.2213 22.0044ZM19.3517 20.9852C18.8401 20.7894 18.5943 20.1217 19.1561 20.1117C20.054 20.0966 21.4685 20.8397 21.0973 20.8045C20.4151 20.7443 19.7781 21.1459 19.3517 20.9852ZM17.857 22.5014C18.1328 22.5014 18.3586 22.6922 18.3535 22.9231C18.3535 23.1541 18.1228 23.3348 17.8419 23.3348C17.561 23.3348 17.3453 23.139 17.3453 22.9131C17.3453 22.6821 17.5761 22.5014 17.8519 22.5014H17.857ZM16.9842 24.4443C17.3704 24.4443 17.6764 24.7104 17.6613 25.0317C17.6463 25.353 17.3152 25.609 16.929 25.604C16.5428 25.599 16.2518 25.3329 16.2619 25.0116C16.2769 24.6903 16.5929 24.4343 16.9792 24.4393L16.9842 24.4443ZM16.3371 27.1804C16.3522 26.9495 16.5829 26.7637 16.8588 26.7687C17.1347 26.7687 17.3403 26.9645 17.3202 27.1955C17.3002 27.4264 17.0644 27.6122 16.7936 27.6071C16.5227 27.6071 16.3221 27.4114 16.3371 27.1754V27.1804ZM15.4142 35.9159C15.2286 35.9611 14.4712 36.1117 14.2153 35.9661C13.9997 35.8456 13.809 35.5996 13.9294 35.2482C13.9896 35.0775 14.1551 34.8566 14.3458 34.8666C14.5364 34.8767 14.8423 34.8064 15.1082 34.7612C15.3941 34.716 15.0681 34.8817 15.1784 35.3938C15.2185 35.5846 15.6549 35.8506 15.4091 35.9109L15.4142 35.9159ZM15.4392 33.0844C15.3189 33.5814 15.7101 33.9379 15.4794 34.0232C15.2486 34.1086 14.5514 34.2039 14.3157 34.1939C14.0849 34.1839 13.8542 33.8626 13.9244 33.5061C13.9997 33.1497 14.2755 32.8735 14.5163 32.6225C14.6818 32.4518 15.1734 32.1958 15.3991 32.241C15.6248 32.2862 15.6599 32.2811 15.8506 32.3012C16.0462 32.3213 15.5546 32.5824 15.4342 33.0794L15.4392 33.0844ZM15.5596 31.4578C15.4844 31.2369 15.8556 30.9256 16.2468 30.76C16.6932 30.5692 16.6431 30.6445 16.5678 30.8453C16.4424 31.1716 16.8989 31.5331 16.8989 31.5331C16.5077 31.6335 15.6349 31.6686 15.5596 31.4528V31.4578ZM16.3873 32.9689C16.5478 32.5573 16.8738 32.3313 17.4206 32.2962C17.9673 32.2611 18.8903 32.6928 20.2295 32.5723C18.9755 33.4509 17.571 33.7471 17.1196 33.6969C16.6682 33.6467 16.2268 33.3806 16.3923 32.9689H16.3873ZM18.6896 35.3536C17.6613 36.0063 16.929 35.9761 16.618 35.7201C16.2017 35.3737 16.4174 34.4851 17.4105 34.4098C18.0275 34.3596 19.5825 34.1337 20.5957 33.5413C20.5957 33.5413 19.8884 34.5955 18.6896 35.3586V35.3536ZM20.691 35.4691C19.758 35.7653 19.2364 35.8105 19.8282 35.1729C20.2596 34.706 20.7713 34.6959 21.8597 34.5002C22.7977 34.3345 23.4448 34.2341 24.0166 33.8776C22.893 34.6006 21.7143 35.1428 20.691 35.4641V35.4691ZM22.9833 33.7571C21.1926 34.2592 20.7412 32.7832 22.9181 32.4267C24.3627 32.1908 25.9879 32.1004 27.1215 31.5933C26.1885 32.3313 25.2606 33.1145 22.9833 33.7521V33.7571ZM22.9332 30.9909C21.93 30.775 20.2596 29.9969 19.6025 29.2639C19.0458 28.6464 18.2984 27.9435 19.6477 28.546C22.0654 29.6253 24.3276 29.9517 25.697 29.6856C25.697 29.6856 26.7604 30.1274 29.0527 30.1726C28.2602 30.6144 25.9277 31.6335 22.9281 30.9859L22.9332 30.9909ZM29.6245 29.5651C26.2989 29.8262 22.0855 26.091 21.2729 24.3891C20.3349 22.4261 21.5889 20.8196 22.9031 21.653C23.8461 22.2554 24.5132 23.9874 26.1534 26.1111C27.6131 27.9987 29.2934 29.048 30.2264 29.048C29.9907 29.2438 29.8703 29.3492 29.6295 29.5651H29.6245ZM11.8528 24.0025C11.8528 24.0025 11.8628 23.9975 11.8678 23.9925L11.8528 24.0025ZM14.5514 12.1393C14.8875 11.4565 13.2222 9.60903 12.9563 9.98054L13.0466 9.81989C11.9782 10.1111 13.8893 12.1945 14.5514 12.1443V12.1393ZM10.5737 12.2498L10.6389 12.1343C10.0771 12.4656 10.5787 13.043 11.0653 12.7869C11.0553 12.6715 10.985 12.4355 10.9098 12.3351C10.7994 12.3451 10.6189 12.2548 10.5737 12.2498Z" fill="url(#paint5_linear_111_126)"/>
<path d="M34.1992 14.514C33.6474 12.1594 32.6543 10.8089 31.2849 10.2215C30.9689 10.086 30.7231 10.1262 30.5224 10.2366C31.7112 10.9194 32.7746 12.1544 32.8298 13.7559C32.88 15.0863 31.957 16.0904 31.1795 16.5121C31.1795 16.5121 30.688 16.743 30.6178 16.8133C30.6077 16.8234 30.5977 16.8284 30.5977 16.8334C30.2917 17.1396 30.3017 18.1588 30.3068 18.3596C30.3268 18.4349 30.3369 18.5052 30.3469 18.5654C30.372 18.7512 30.3469 18.8717 30.2767 18.937C30.2416 18.9721 30.1914 18.9872 30.1362 18.9972C30.1061 18.9972 30.076 19.0022 30.0409 19.0022C29.9757 19.0022 29.9005 18.9922 29.8202 18.9821C29.6998 18.9621 29.5744 18.9319 29.444 18.9018L29.4039 18.8918C29.2885 18.8667 29.1832 18.8516 29.0728 18.8566C28.9424 18.8767 28.8622 18.9169 28.8321 19.0072C28.7969 19.0976 28.817 19.183 28.8471 19.2834C28.8822 19.3988 28.8973 19.4591 28.822 19.4842C28.5813 19.5444 28.4007 19.439 28.4007 19.444C28.4007 19.444 28.4358 19.8808 28.2753 19.8707C28.1198 19.8607 27.879 19.7252 27.6182 20.0063C27.4376 20.2021 27.0413 21.1359 26.2187 20.5937C25.7472 20.2824 24.8694 18.9219 24.0869 18.8215C25.1202 20.2774 27.0514 23.9523 27.864 24.8911C27.7235 24.1983 27.8991 23.621 28.4057 24.5648C28.6766 25.0719 28.8471 25.4685 28.9625 25.8199C29.2384 26.086 29.5243 26.342 29.8252 26.583C29.6798 25.3932 29.5192 24.7004 29.123 23.7716C28.802 23.0286 28.9825 21.663 29.6747 21.4471C30.1914 21.2865 30.3369 22.6119 30.4221 23.5959C30.5425 25.0317 30.377 25.9555 30.1914 26.8692C30.387 27.0148 30.5877 27.1503 30.7933 27.2808C31.8366 23.7113 30.8033 21.9241 31.0893 20.3477C31.4554 18.3094 32.7746 17.6116 33.0906 18.8416C33.3214 19.7352 33.0004 22.5014 32.7144 23.7465C32.4536 24.8911 31.8216 26.5177 31.1795 27.5068C31.3702 27.6122 31.5608 27.7126 31.7614 27.808C34.7861 23.6712 35.077 18.204 34.2092 14.509L34.1992 14.514Z" fill="#4B93E1"/>
<path d="M32.7245 29.2488C32.7245 29.2488 32.6743 29.4095 32.559 29.6756C32.4737 29.9416 32.2229 30.3282 31.937 30.78C31.626 31.1867 31.2849 31.6787 30.8284 32.1255C30.4021 32.5974 29.8905 33.0392 29.3738 33.471C28.8722 33.9228 28.3104 34.3044 27.7988 34.6658C27.2621 35.0022 26.7454 35.2884 26.314 35.5394C25.3861 35.9511 24.7691 36.187 24.7691 36.187C24.724 36.2071 24.6688 36.182 24.6487 36.1318C24.6337 36.0916 24.6487 36.0464 24.6788 36.0264H24.6838C24.6838 36.0264 25.2256 35.6348 26.0281 35.0825C26.4093 34.7713 26.8658 34.4349 27.3273 34.0433C27.7586 33.6065 28.2903 33.24 28.7267 32.7581C28.9575 32.5322 29.1832 32.3012 29.4089 32.0753C29.6196 31.8343 29.8252 31.6034 30.0359 31.3875C30.4573 30.9558 30.8034 30.514 31.1344 30.1676C31.4103 29.8061 31.6962 29.5551 31.8567 29.294C32.0223 29.058 32.1326 28.9275 32.1326 28.9275H32.1376C32.263 28.7769 32.4737 28.7618 32.6141 28.8874C32.7195 28.9777 32.7546 29.1183 32.7145 29.2438L32.7245 29.2488Z" fill="#4B93E1"/>
<path d="M33.502 28.2799C33.502 28.2799 33.6274 28.1845 33.8531 28.0138C34.0838 27.8531 34.3898 27.5921 34.7359 27.2708C34.9165 27.1201 35.097 26.9294 35.2826 26.7336C35.4682 26.5328 35.6789 26.342 35.8645 26.106C36.2457 25.6492 36.642 25.1622 36.9831 24.63C37.3593 24.128 37.6201 23.5506 37.911 23.0486C38.1618 22.5215 38.3524 22.0144 38.538 21.5877C38.7938 20.7041 38.9644 20.1117 38.9644 20.1117L38.9845 20.0414C39.0798 19.71 39.4259 19.5193 39.7619 19.6147C40.098 19.71 40.2836 20.0565 40.1883 20.3928C40.1833 20.4179 40.1732 20.438 40.1632 20.4581C40.1632 20.4581 39.9074 21.0756 39.5212 22.0044C39.2704 22.4411 39.0045 22.9582 38.6785 23.4854C38.3073 23.9874 37.9712 24.5547 37.5198 25.0317C37.1085 25.5437 36.637 26.0006 36.1956 26.4223C35.9799 26.6382 35.7391 26.8139 35.5284 26.9946C35.3127 27.1754 35.1121 27.3461 34.9064 27.4816C34.5102 27.7678 34.1791 27.9937 33.9333 28.1292C33.6926 28.2748 33.5521 28.3552 33.5521 28.3552C33.5321 28.3702 33.502 28.3602 33.4869 28.3401C33.4769 28.32 33.4819 28.2949 33.4969 28.2799H33.502Z" fill="#4B93E1"/>
<path d="M32.9702 28.0239L33.4667 27.3612C33.7276 26.9495 34.0536 26.3973 34.2743 25.7948C34.7559 24.61 34.8461 23.3398 34.8461 23.3398C34.8712 22.9934 35.1722 22.7324 35.5183 22.7575C35.8644 22.7826 36.1252 23.0838 36.1001 23.4302C36.1001 23.4754 36.0901 23.5256 36.0751 23.5657L36.06 23.6059C36.06 23.6059 35.9597 23.9373 35.754 24.4192C35.5534 24.9012 35.2524 25.5337 34.8612 26.1011C34.49 26.6784 34.0185 27.1855 33.6624 27.5419C33.2862 27.8632 33.0304 28.0791 33.0304 28.0791C33.0103 28.0941 32.9802 28.0941 32.9651 28.0741C32.9501 28.059 32.9501 28.0339 32.9651 28.0138L32.9702 28.0239Z" fill="#4B93E1"/>
<path d="M28.0394 12.8874C28.25 12.8874 28.2049 12.5259 28.1297 12.3753C27.9692 12.2347 27.7785 12.059 27.6281 11.9184C27.4074 11.7126 27.3722 11.3863 27.1265 11.7076C27.3472 11.9887 27.3722 12.0239 27.5779 12.3201C27.6531 12.4255 27.914 12.8874 28.0344 12.8874H28.0394Z" fill="#4A81D5"/>
<path d="M22.7125 14.1224C22.878 14.1224 22.8379 13.8412 22.7827 13.7207C22.6573 13.6103 22.5069 13.4747 22.3915 13.3643C22.2159 13.2036 22.1959 12.9476 22.0002 13.1986C22.1708 13.4145 22.1909 13.4446 22.3514 13.6755C22.4116 13.7609 22.6122 14.1173 22.7075 14.1173L22.7125 14.1224Z" fill="#4A81D5"/>
<path d="M24.3828 10.3772C24.3076 10.332 24.1922 10.1512 24.0618 10.2466C23.9565 10.3219 24.0568 10.6282 24.1119 10.7035C24.2474 10.8842 24.4831 10.9344 24.6085 11.1453C24.6788 11.2658 24.6788 11.6172 24.8443 11.5118C25.4713 11.1302 24.5383 10.4776 24.3828 10.3772Z" fill="#4A81D5"/>
<path d="M26.0631 12.2849C26.038 12.295 25.9829 12.4907 25.9879 12.5108C26.0129 12.6564 26.2236 12.7116 26.344 12.792C26.5095 12.8974 26.6751 13.0832 26.8356 13.2388C26.9911 13.1534 26.344 12.5209 26.2938 12.4154L26.2637 12.3903C26.1985 12.3853 26.1283 12.2699 26.0631 12.2899V12.2849Z" fill="#4A81D5"/>
<path d="M26.4042 15.513C26.4394 15.1315 26.2738 14.8955 25.8876 14.9106C25.3057 14.9307 25.5917 15.8544 26.1033 15.8946C26.1033 15.8946 26.3742 15.8946 26.4093 15.513H26.4042Z" fill="#4A81D5"/>
<path d="M25.9527 13.7308C26.043 13.6856 25.9778 13.0781 25.6668 13.2588C25.3609 13.4345 25.8374 13.8763 25.9527 13.7308Z" fill="#4A81D5"/>
<path d="M30.7131 9.28269L30.4923 9.31783C30.5024 9.23249 30.4021 8.82583 30.4522 8.62C30.2917 8.3991 29.9055 8.07779 29.6948 7.96735C29.0728 8.69028 29.9406 10.086 30.708 9.28269H30.7131Z" fill="#4A81D5"/>
<path d="M29.3285 11.2909L29.1629 11.3059C29.5442 11.2156 28.2149 8.86601 27.4926 8.85095C27.297 9.4534 28.8419 12.1343 29.3285 11.2909Z" fill="#4A81D5"/>
<path d="M24.6989 15.5632C25.2105 15.0411 24.0869 14.3935 23.9214 14.7599C23.7508 14.9055 24.1622 16.1155 24.6989 15.5632Z" fill="#4A81D5"/>
<path d="M27.1517 6.61686L27.0363 6.57168C26.921 6.42107 26.8307 6.31062 26.7253 6.17005C26.5698 5.95417 25.6469 4.52336 26.1234 5.65295C26.2589 5.92405 25.8877 6.0847 26.0081 6.36584C26.0532 6.46625 26.7053 7.03356 26.8156 7.06368C27.0113 7.1189 27.1918 6.73735 27.1467 6.61686H27.1517Z" fill="#4A81D5"/>
<path d="M23.1188 15.9046C23.0536 15.8896 22.9784 15.8645 22.9232 15.8494C22.8379 15.8243 22.7025 15.6887 22.6624 15.8142C22.7526 15.8594 22.858 15.9147 22.9483 15.9699C22.9834 15.99 23.1088 16.0854 23.1439 16.0653C23.2091 16.0351 23.1539 15.9347 23.1188 15.9046Z" fill="#4A81D5"/>
<path d="M26.4942 21.3668C26.4942 21.3668 26.4942 21.3668 26.4989 21.3714L26.4895 21.3668H26.4942Z" fill="#4A81D5"/>
<path d="M25.7521 9.57893C25.2806 9.65926 25.8825 10.2818 26.0731 10.1663C26.2135 10.1513 26.2336 9.4986 25.7521 9.57893Z" fill="#4A81D5"/>
<path d="M24.1772 16.9036L24.1471 16.8836C24.0769 16.8836 24.0117 16.7832 23.9415 16.8133C23.7659 16.5372 23.8612 17.0141 23.8662 17.0392C23.8963 17.1747 24.102 17.1998 24.2324 17.2551C24.4029 17.3304 24.5735 17.491 24.734 17.6165C24.8895 17.5161 24.2274 17.0041 24.1772 16.9087V16.9036Z" fill="#4A81D5"/>
<path d="M24.6486 13.2488C24.6236 13.0681 24.3978 12.8422 24.2373 12.7468C24.0216 12.6113 23.7608 12.5209 23.5501 12.3201C23.3294 12.4255 24.1872 13.2438 24.2423 13.3794L24.2825 13.4095C24.3677 13.4195 24.453 13.5601 24.5383 13.535C24.5734 13.525 24.6486 13.284 24.6436 13.2539L24.6486 13.2488Z" fill="#4A81D5"/>
</g>
<defs>
<radialGradient id="paint0_radial_111_126" cx="0" cy="0" r="1" gradientUnits="userSpaceOnUse" gradientTransform="translate(23.2492 21.1952) scale(26.7855 23.8599)">
<stop offset="0.79" stop-color="#6EDAFF"/>
<stop offset="0.87" stop-color="#61C4FE"/>
<stop offset="1" stop-color="#4797FD"/>
</radialGradient>
<radialGradient id="paint1_radial_111_126" cx="0" cy="0" r="1" gradientUnits="userSpaceOnUse" gradientTransform="translate(19.7341 29.3642) rotate(65.7088) scale(18.377 32.8757)">
<stop offset="0.41" stop-color="#6EDAFF"/>
<stop offset="0.63" stop-color="#61C4FE"/>
<stop offset="1" stop-color="#4797FD"/>
</radialGradient>
<radialGradient id="paint2_radial_111_126" cx="0" cy="0" r="1" gradientUnits="userSpaceOnUse" gradientTransform="translate(19.7341 29.3642) rotate(65.7088) scale(18.3769 32.8757)">
<stop offset="0.41" stop-color="#6EDAFF"/>
<stop offset="0.63" stop-color="#61C4FE"/>
<stop offset="1" stop-color="#4797FD"/>
</radialGradient>
<radialGradient id="paint3_radial_111_126" cx="0" cy="0" r="1" gradientUnits="userSpaceOnUse" gradientTransform="translate(19.7373 29.3555) rotate(65.7088) scale(18.3769 32.8757)">
<stop offset="0.41" stop-color="#6EDAFF"/>
<stop offset="0.63" stop-color="#61C4FE"/>
<stop offset="1" stop-color="#4797FD"/>
</radialGradient>
<radialGradient id="paint4_radial_111_126" cx="0" cy="0" r="1" gradientUnits="userSpaceOnUse" gradientTransform="translate(19.734 29.3642) rotate(65.7088) scale(18.3769 32.8757)">
<stop offset="0.41" stop-color="#6EDAFF"/>
<stop offset="0.63" stop-color="#61C4FE"/>
<stop offset="1" stop-color="#4797FD"/>
</radialGradient>
<linearGradient id="paint5_linear_111_126" x1="25.1936" y1="34.4535" x2="7.19902" y2="15.5851" gradientUnits="userSpaceOnUse">
<stop stop-color="#6EDAFF"/>
<stop offset="0.36" stop-color="#5CBCFE"/>
<stop offset="0.76" stop-color="#4CA1FD"/>
<stop offset="1" stop-color="#4797FD"/>
</linearGradient>
<clipPath id="clip0_111_126">
<rect width="152" height="48" fill="white"/>
</clipPath>
</defs>
</svg>
