<?xml version="1.0" encoding="UTF-8" standalone="no"?>
<!DOCTYPE svg PUBLIC "-//W3C//DTD SVG 1.1//EN" "http://www.w3.org/Graphics/SVG/1.1/DTD/svg11.dtd">
<svg width="100%" height="100%" viewBox="0 0 298 299" version="1.1" xmlns="http://www.w3.org/2000/svg" xmlns:xlink="http://www.w3.org/1999/xlink" xml:space="preserve" xmlns:serif="http://www.serif.com/" style="fill-rule:evenodd;clip-rule:evenodd;stroke-linejoin:round;stroke-miterlimit:2;">
    <g id="g4387" transform="matrix(1,0,0,1,-1.263,-0.5)">
        <path id="path3040" d="M298.736,150C298.736,232.567 232.144,299.5 150,299.5C67.855,299.5 1.263,232.568 1.263,150C1.263,67.434 67.855,0.5 150,0.5C232.145,0.5 298.736,67.434 298.736,150Z" style="fill:white;fill-rule:nonzero;"/>
        <g id="g4381">
            <path id="inner_artwork" d="M148.758,53.65C153.994,56.668 159.548,60.552 163.776,64.668L162.115,66.337C153.772,65.45 144.985,66.557 137.076,66.679C136.194,65.789 134.417,64.451 136.072,63.333L148.758,53.65ZM296.279,157.287C296.39,161.053 296.744,164.287 295.275,168.141C280.033,172.476 270.021,156.338 255.232,158.772L256.904,167.137C270.586,167.587 279.132,180.707 293.267,180.143C291.259,184.154 294.163,194.721 285.266,190.497C276.031,188.278 269.354,180.143 259.234,180.143C258.013,182.385 258.786,185.489 258.572,188.141C269.248,189.816 276.926,198.839 287.599,200.505C286.595,204.173 285.6,208.28 282.594,210.517C273.911,208.404 267.129,200.606 257.885,200.829L256.239,208.51C265.024,208.736 270.7,216.508 278.595,218.841C278.812,222.081 275.916,224.976 274.248,227.868C267.239,225.763 261.894,219.742 253.886,220.186C253.775,217.169 255.566,213.743 254.89,210.517C245.896,213.192 239.865,204.835 233.199,199.822C233.007,183.417 215.737,172.655 214.825,157.287C214.65,154.223 215.117,150.952 216.513,147.437C222.189,134.313 220.406,117.274 214.182,105.038C212.291,101.818 208.94,99.276 205.817,97.383C210.386,107.066 215.954,118.507 213.175,130.409C212.853,139.6 207.43,148.427 207.368,157.287C207.347,160.446 208.021,163.605 209.838,166.795C217.074,179.827 230.092,192.163 225.197,208.507C223.851,213.527 219.843,217.409 218.843,222.518C227.308,229.529 235.312,237.429 246.544,237.874C250.546,235.318 248.323,223.983 256.556,229.211L268.577,235.224C267.701,238.442 265.007,241.326 262.567,243.542C258.006,241.322 253.557,238.661 247.87,238.878C246.193,240.657 244.75,242.654 244.878,245.207C248.88,245.866 252.551,247.555 255.894,249.895C254.342,253.238 251.317,255.333 248.536,257.893L239.211,254.559C237.654,256.787 234.42,259.128 235.555,261.573C237.659,262.474 239.993,263.692 241.542,265.253C237.426,269.702 232.209,272.564 227.189,275.584C222.865,261.451 208.618,251.542 209.841,235.198L209.179,234.537C205.83,238.302 206.949,244.323 207.165,249.209C211.173,259.446 220.733,267.353 222.183,278.579C220.509,281.468 216.735,282.044 213.84,283.267C214.176,263.027 183.475,247.676 203.163,227.203C209.729,217.178 220.73,207.611 216.832,193.809C212.83,180.483 198.675,172.226 198.8,157.287L198.822,156.122C202.046,140.543 211.84,123.966 203.828,107.393C201.595,100.727 196.606,93.152 189.82,90.366C199.937,101.946 203.948,120.84 198.16,136.422C195.243,142.62 191.227,150.004 190.824,157.29L190.8,157.29C190.585,161.095 191.362,164.879 193.817,168.467C201.499,180.931 214.841,194.622 207.166,210.865C198.49,223.875 183.361,237.109 191.81,254.245C197.928,264.479 207.392,274.691 204.839,287.272L194.827,290.606C201.502,267.14 168.792,253.352 182.485,229.878C190.939,217.308 206.059,205.514 197.5,188.831C192.383,178.494 181.81,172.376 182.144,159.458L182.508,157.289C185.953,138.968 199.88,121.626 190.142,102.048C187.583,96.267 182.469,90.373 176.793,87.033L176.45,87.376C187.803,98.389 191.257,116.509 185.136,131.075C182.28,139.621 176.012,148.134 174.738,157.292C174.132,161.61 174.643,166.085 177.138,170.799C184.368,182.248 197.047,194.393 189.135,209.195C180.803,221.421 166.893,233.317 172.449,249.216C178.569,263.126 191.348,276.377 184.448,293.625L174.117,295.958C182.346,279.149 170.007,262.47 162.779,247.892C153.986,226.977 181.671,216.962 182.115,197.84C182.01,185.498 168.889,178.49 166.116,167.144C160.437,162.353 154.551,169.049 147.762,167.806C142.75,168.813 135.052,160.907 132.06,169.477C128.497,182.041 112.265,191.278 119.399,206.18C126.187,219.423 142.523,229.107 137.066,246.245C132.18,262.253 116.04,277.495 126.05,295.958C121.938,294.626 114.259,297.176 114.37,290.607C108.032,268.248 135.06,255.222 126.712,232.875C122.827,219.187 105.126,211.625 109.023,195.162C111.904,181.61 127.111,172.136 124.978,157.291C124.805,156.048 124.499,154.776 124.062,153.45C118.386,137.431 106.806,121.408 113.708,102.712C115.603,97.372 119.388,92.812 122.714,88.039C111.7,93.933 106.144,106.396 106.372,119.075C105.892,132.863 116.077,144.674 117.526,157.291C118.096,162.383 117.262,167.597 113.708,173.128C106.483,182.932 97.034,193.269 101.366,206.178C105.485,219.199 121.725,227.087 120.724,242.222C120.614,260.125 99.811,271.272 105.707,291.294L95.353,287.935C91.242,270.143 110.15,261.04 110.367,244.578C113.043,225.647 88.898,218.623 90.347,200.169C90.243,186.148 102.585,177.268 108.036,165.474C108.971,162.604 109.282,159.892 109.157,157.292C108.489,144.252 96.739,134.057 98.689,119.396C99.345,108.606 103.016,99.148 110.027,91.033C100.354,94.919 96.358,106.054 93.686,115.4C89.049,130.386 100.118,143.866 101.228,157.293C101.72,163.222 100.271,169.117 94.692,175.144C86.678,184.588 78.551,196.504 84.337,209.197C90.464,223.202 109.713,234.103 101.364,251.571C96.809,262.586 85.902,270.924 86.35,283.935C83.46,282.711 80.462,281.491 78.006,279.272C78.006,262.7 101.58,252.349 90.348,234.884C89.353,238.33 89.139,243.013 88.36,246.906C84.462,257.034 76.122,265.141 73.001,275.611C67.782,273.597 62.325,269.365 57.984,264.916L63.997,261.236C63.329,259.007 61.552,257.118 59.998,255.227C56.093,254.678 53.529,257.24 50.31,258.244C47.529,255.792 44.845,253.566 42.628,250.563C44.624,244.878 60.22,249.579 52.319,240.232C46.985,236.897 41.631,241.661 36.96,243.885L30.628,235.887C36.079,232.553 41.516,227.87 48.296,229.213C49.967,232.222 50.083,236.647 53.302,238.218C64.762,237.995 72.882,229.327 81.667,222.539C75.544,213.428 70.56,200.85 75.999,189.832C80.357,178.791 91.712,169.492 92.227,157.286C92.343,154.508 91.91,151.585 90.695,148.439C84.691,132.974 82.572,112.073 94.032,98.385C87.801,100.059 84.127,107.825 82.01,113.722C75.121,128.823 83.834,142.813 84.135,157.285C84.176,159.888 83.965,162.497 83.334,165.125C77.436,177.027 67.88,187.47 66.328,201.166C59.54,205.496 53.967,213.068 44.295,210.513C43.955,213.069 44.734,216.965 45.621,219.86C37.951,219.538 32.721,225.191 26.263,227.861C22.823,226.757 21.928,222.31 20.596,219.198C28.155,216.645 33.608,209.067 42.287,209.187C43.293,206.392 41.723,203.831 41.28,201.164C30.484,196.372 13.371,224.852 11.932,200.16C22.72,199.492 29.614,189.478 40.298,188.48L40.617,180.482C28.492,179.257 20.692,191.722 8.572,190.493L5.899,179.82C19.919,180.696 28.272,168.132 41.624,167.456C43.398,165.123 43.612,161.674 43.954,158.451C29.38,156.552 19.379,172.703 3.911,167.798C3.911,167.798 3.378,161.076 3.089,157.286L3.11,157.286C3.005,155.804 2.905,154.771 2.905,154.771C16.698,160.123 28.817,150.216 40.617,145.102C43.618,144.204 48.298,145.761 49.644,142.427C49.527,139.868 54.194,136.876 50.309,135.09C33.058,132.749 21.598,153.556 3.909,144.095L2.582,141.42C6.262,91.145 34.616,42.539 81.667,18.62C100.723,7.73 124.397,2.179 148.272,1.982C177.085,1.743 206.199,9.301 227.857,24.632C248.889,37.533 269.007,58.794 279.925,80.377C290.367,99.287 295.173,120.506 296.608,143.096C278.36,156.884 266.118,130.106 247.536,136.099C248.537,138.997 249.091,141.995 251.215,144.442C267.684,144.326 279.025,161.57 296.264,154.774L296.279,157.287ZM86.667,95.369C75.096,87.802 60.426,94.927 49.642,99.048C48.641,88.92 44.528,79.693 35.952,73.019C35.12,72.605 33.97,71.734 32.934,71.67C32.314,71.631 31.724,71.881 31.266,72.674C35.153,96.587 19.608,113.273 8.592,131.413C12.26,134.411 18.153,133.963 22.602,133.082C34.28,128.412 45.404,120.284 59.309,123.07C63.421,116.062 70.33,109.274 75.995,103.712C79.456,100.717 84.211,98.815 86.667,95.369ZM122.049,110.387C121.827,111.827 122.16,114.394 124.38,113.402C127.834,108.619 133.949,112.403 137.729,112.74L137.729,111.394C135.655,108.137 131.388,106.501 127.055,106.664C126.055,106.699 125.039,106.845 124.061,107.072C122.611,107.394 121.602,108.721 122.049,110.387ZM176.445,96.056C173.339,89.157 166.219,86.365 159.758,84.697C156.591,84.307 153.304,84.043 150.044,84.012C149.433,84.006 148.823,83.998 148.215,84.012C139.096,84.196 130.383,86.537 125.06,94.043C124.296,96.162 120.937,99.138 124.056,101.037C131.065,100.589 139.063,99.71 143.735,105.725C143.735,111.07 147.186,118.181 141.404,120.74C136.613,116.304 130.939,122.628 125.726,119.068C123.275,117.62 121.724,119.31 120.72,121.423C119.271,135.214 126.492,150.434 139.394,158.107C144.623,159.993 151.652,161.787 157.109,159.111C170.235,152.999 175.672,138.991 178.116,126.085C177.788,123.629 177.905,118.843 174.459,118.727C170.568,121.188 164.893,119.734 160.769,118.727C158.331,119.514 158.219,123.081 155.444,123.757L153.753,122.408C152.305,116.299 151.412,107.619 157.091,103.392C163.437,100.833 170.89,99.715 177.453,101.723C178.678,99.611 176.787,97.948 176.445,96.056ZM169.748,107.025C169.307,107.036 168.878,107.058 168.444,107.072C166.113,108.627 159.32,107.509 161.772,112.74C166.002,109.394 171.898,111.739 176.125,113.402C177.688,112.626 177.349,111.068 177.452,109.725C176.095,107.2 172.852,106.963 169.748,107.025ZM218.182,59.991C209.948,59.554 203.053,64.228 195.487,66.343C194.828,59.905 199.719,53.106 200.835,46.643C188.602,47.43 178.913,54.793 168.793,60.675C166.451,55.016 164.102,49.328 161.776,43.648L175.125,30.963L175.467,29.292L157.436,28.288C154.33,22.846 153.106,16.291 149.435,11.285C146.431,16.958 144.413,22.962 141.412,28.63L123.402,29.637L123.402,30.963L137.071,43.305C135.4,49.649 133.847,56.542 129.735,61.337C121.726,56.54 113.831,51.319 105.05,47.988C102.937,47.306 99.925,46.197 98.034,47.646C100.811,53.766 104.7,60.349 104.046,67.029C100.373,66.353 97.486,63.998 94.035,63.008C89.908,61.882 85.011,59.682 81.007,61.02C87.683,70.359 93.132,80.133 95.017,91.372C117.164,80.683 142.992,74.804 169.802,79.372C182.369,81.372 193.925,86.491 205.162,90.708C205.601,78.923 213.054,69.453 218.182,59.991ZM256.214,124.075C267.552,127.076 278.926,139.429 290.932,131.414C280.476,114.063 264.913,98.04 269.241,75.35C269.694,73.801 268.693,72.233 267.253,72.013C260.47,74.785 255.217,81.468 252.533,88.037C251.429,91.922 250.775,96.052 249.22,99.714C241.094,95.485 232.423,91.388 222.523,92.378C218.953,92.823 213.835,93.057 213.176,96.722C224.411,102.726 233.65,112.746 240.535,123.416C245.329,122.634 251.208,123.302 256.214,124.075ZM137.408,139.756L137.728,141.767C142.075,144.663 143.412,149.571 149.43,149.125C154.767,149.442 158.771,144.442 161.43,140.44C154.208,139.443 145.42,140.986 137.408,139.756ZM143.418,130.751C143.635,131.642 142.867,132.977 144.08,133.427C147.64,132.654 154.089,135.321 156.077,131.094C154.689,129.539 152.423,128.833 150.045,128.833C147.668,128.833 145.201,129.526 143.418,130.751Z" style="fill:rgb(0,112,66);fill-rule:nonzero;"/>
            <g id="g4377">
                <rect id="rect3815" x="137.416" y="126.891" width="24.392" height="10.021" style="fill:white;fill-opacity:0.99;fill-rule:nonzero;"/>
                <path id="path3032-6" d="M141.922,132.249C145.074,132.995 145.854,134.113 148.345,134.425C150.993,134.378 150.611,133.84 155.23,132.246C155.533,132.139 155.95,131.47 155.433,130.957C152.565,128.11 150.583,130.144 148.785,130.198C146.4,130.224 144.163,128.156 141.833,130.844C141.436,131.39 141.229,131.926 141.922,132.249Z" style="fill:rgb(0,112,66);fill-rule:nonzero;"/>
            </g>
        </g>
    </g>
</svg>
